<?xml version="1.0" encoding="UTF-8" standalone="no"?>
<!DOCTYPE svg PUBLIC "-//W3C//DTD SVG 1.1//EN"
 "http://www.w3.org/Graphics/SVG/1.1/DTD/svg11.dtd">
<!-- Generated by graphviz version 2.43.0 (0)
 -->
<!-- Title: Tree Pages: 1 -->
<svg width="1182pt" height="836pt"
 viewBox="0.00 0.00 1182.00 836.00" xmlns="http://www.w3.org/2000/svg" xmlns:xlink="http://www.w3.org/1999/xlink">
<g id="graph0" class="graph" transform="scale(1 1) rotate(0) translate(4 832)">
<title>Tree</title>
<polygon fill="white" stroke="transparent" points="-4,4 -4,-832 1178,-832 1178,4 -4,4"/>
<!-- &#45;88 -->
<g id="node1" class="node">
<title>&#45;88</title>
<ellipse fill="none" stroke="black" cx="531" cy="-810" rx="27" ry="18"/>
<text text-anchor="middle" x="531" y="-806.3" font-family="Times,serif" font-size="14.00">&#45;88</text>
</g>
<!-- &#45;99 -->
<g id="node2" class="node">
<title>&#45;99</title>
<ellipse fill="none" stroke="black" cx="495" cy="-738" rx="27" ry="18"/>
<text text-anchor="middle" x="495" y="-734.3" font-family="Times,serif" font-size="14.00">&#45;99</text>
</g>
<!-- &#45;88&#45;&gt;&#45;99 -->
<g id="edge1" class="edge">
<title>&#45;88&#45;&gt;&#45;99</title>
<path fill="none" stroke="black" d="M522.65,-792.76C518.29,-784.28 512.85,-773.71 507.96,-764.2"/>
<polygon fill="black" stroke="black" points="510.99,-762.44 503.3,-755.15 504.77,-765.64 510.99,-762.44"/>
</g>
<!-- 56 -->
<g id="node3" class="node">
<title>56</title>
<ellipse fill="none" stroke="black" cx="567" cy="-738" rx="27" ry="18"/>
<text text-anchor="middle" x="567" y="-734.3" font-family="Times,serif" font-size="14.00">56</text>
</g>
<!-- &#45;88&#45;&gt;56 -->
<g id="edge2" class="edge">
<title>&#45;88&#45;&gt;56</title>
<path fill="none" stroke="black" d="M539.35,-792.76C543.71,-784.28 549.15,-773.71 554.04,-764.2"/>
<polygon fill="black" stroke="black" points="557.23,-765.64 558.7,-755.15 551.01,-762.44 557.23,-765.64"/>
</g>
<!-- &#45;100 -->
<g id="node4" class="node">
<title>&#45;100</title>
<ellipse fill="none" stroke="black" cx="419" cy="-666" rx="31.4" ry="18"/>
<text text-anchor="middle" x="419" y="-662.3" font-family="Times,serif" font-size="14.00">&#45;100</text>
</g>
<!-- &#45;99&#45;&gt;&#45;100 -->
<g id="edge3" class="edge">
<title>&#45;99&#45;&gt;&#45;100</title>
<path fill="none" stroke="black" d="M479.62,-722.83C468.95,-713 454.53,-699.72 442.43,-688.58"/>
<polygon fill="black" stroke="black" points="444.61,-685.83 434.88,-681.63 439.86,-690.98 444.61,-685.83"/>
</g>
<!-- &#45;91 -->
<g id="node5" class="node">
<title>&#45;91</title>
<ellipse fill="none" stroke="black" cx="495" cy="-666" rx="27" ry="18"/>
<text text-anchor="middle" x="495" y="-662.3" font-family="Times,serif" font-size="14.00">&#45;91</text>
</g>
<!-- &#45;99&#45;&gt;&#45;91 -->
<g id="edge4" class="edge">
<title>&#45;99&#45;&gt;&#45;91</title>
<path fill="none" stroke="black" d="M495,-719.7C495,-711.98 495,-702.71 495,-694.11"/>
<polygon fill="black" stroke="black" points="498.5,-694.1 495,-684.1 491.5,-694.1 498.5,-694.1"/>
</g>
<!-- &#45;85 -->
<g id="node7" class="node">
<title>&#45;85</title>
<ellipse fill="none" stroke="black" cx="567" cy="-666" rx="27" ry="18"/>
<text text-anchor="middle" x="567" y="-662.3" font-family="Times,serif" font-size="14.00">&#45;85</text>
</g>
<!-- 56&#45;&gt;&#45;85 -->
<g id="edge6" class="edge">
<title>56&#45;&gt;&#45;85</title>
<path fill="none" stroke="black" d="M567,-719.7C567,-711.98 567,-702.71 567,-694.11"/>
<polygon fill="black" stroke="black" points="570.5,-694.1 567,-684.1 563.5,-694.1 570.5,-694.1"/>
</g>
<!-- 77 -->
<g id="node8" class="node">
<title>77</title>
<ellipse fill="none" stroke="black" cx="948" cy="-666" rx="27" ry="18"/>
<text text-anchor="middle" x="948" y="-662.3" font-family="Times,serif" font-size="14.00">77</text>
</g>
<!-- 56&#45;&gt;77 -->
<g id="edge7" class="edge">
<title>56&#45;&gt;77</title>
<path fill="none" stroke="black" d="M592.89,-732.24C659.35,-720.03 836.11,-687.56 912.27,-673.56"/>
<polygon fill="black" stroke="black" points="913.12,-676.97 922.33,-671.72 911.86,-670.08 913.12,-676.97"/>
</g>
<!-- &#45;89 -->
<g id="node6" class="node">
<title>&#45;89</title>
<ellipse fill="none" stroke="black" cx="459" cy="-594" rx="27" ry="18"/>
<text text-anchor="middle" x="459" y="-590.3" font-family="Times,serif" font-size="14.00">&#45;89</text>
</g>
<!-- &#45;91&#45;&gt;&#45;89 -->
<g id="edge5" class="edge">
<title>&#45;91&#45;&gt;&#45;89</title>
<path fill="none" stroke="black" d="M486.65,-648.76C482.29,-640.28 476.85,-629.71 471.96,-620.2"/>
<polygon fill="black" stroke="black" points="474.99,-618.44 467.3,-611.15 468.77,-621.64 474.99,-618.44"/>
</g>
<!-- &#45;87 -->
<g id="node9" class="node">
<title>&#45;87</title>
<ellipse fill="none" stroke="black" cx="531" cy="-594" rx="27" ry="18"/>
<text text-anchor="middle" x="531" y="-590.3" font-family="Times,serif" font-size="14.00">&#45;87</text>
</g>
<!-- &#45;85&#45;&gt;&#45;87 -->
<g id="edge8" class="edge">
<title>&#45;85&#45;&gt;&#45;87</title>
<path fill="none" stroke="black" d="M558.65,-648.76C554.29,-640.28 548.85,-629.71 543.96,-620.2"/>
<polygon fill="black" stroke="black" points="546.99,-618.44 539.3,-611.15 540.77,-621.64 546.99,-618.44"/>
</g>
<!-- &#45;45 -->
<g id="node10" class="node">
<title>&#45;45</title>
<ellipse fill="none" stroke="black" cx="603" cy="-594" rx="27" ry="18"/>
<text text-anchor="middle" x="603" y="-590.3" font-family="Times,serif" font-size="14.00">&#45;45</text>
</g>
<!-- &#45;85&#45;&gt;&#45;45 -->
<g id="edge9" class="edge">
<title>&#45;85&#45;&gt;&#45;45</title>
<path fill="none" stroke="black" d="M575.35,-648.76C579.71,-640.28 585.15,-629.71 590.04,-620.2"/>
<polygon fill="black" stroke="black" points="593.23,-621.64 594.7,-611.15 587.01,-618.44 593.23,-621.64"/>
</g>
<!-- 65 -->
<g id="node61" class="node">
<title>65</title>
<ellipse fill="none" stroke="black" cx="948" cy="-594" rx="27" ry="18"/>
<text text-anchor="middle" x="948" y="-590.3" font-family="Times,serif" font-size="14.00">65</text>
</g>
<!-- 77&#45;&gt;65 -->
<g id="edge60" class="edge">
<title>77&#45;&gt;65</title>
<path fill="none" stroke="black" d="M948,-647.7C948,-639.98 948,-630.71 948,-622.11"/>
<polygon fill="black" stroke="black" points="951.5,-622.1 948,-612.1 944.5,-622.1 951.5,-622.1"/>
</g>
<!-- 100 -->
<g id="node62" class="node">
<title>100</title>
<ellipse fill="none" stroke="black" cx="1057" cy="-594" rx="28.7" ry="18"/>
<text text-anchor="middle" x="1057" y="-590.3" font-family="Times,serif" font-size="14.00">100</text>
</g>
<!-- 77&#45;&gt;100 -->
<g id="edge61" class="edge">
<title>77&#45;&gt;100</title>
<path fill="none" stroke="black" d="M966.99,-652.81C984.12,-641.8 1009.56,-625.47 1029.03,-612.97"/>
<polygon fill="black" stroke="black" points="1030.97,-615.87 1037.5,-607.52 1027.19,-609.98 1030.97,-615.87"/>
</g>
<!-- &#45;56 -->
<g id="node11" class="node">
<title>&#45;56</title>
<ellipse fill="none" stroke="black" cx="279" cy="-522" rx="27" ry="18"/>
<text text-anchor="middle" x="279" y="-518.3" font-family="Times,serif" font-size="14.00">&#45;56</text>
</g>
<!-- &#45;45&#45;&gt;&#45;56 -->
<g id="edge10" class="edge">
<title>&#45;45&#45;&gt;&#45;56</title>
<path fill="none" stroke="black" d="M582.43,-582.17C577.48,-579.88 572.13,-577.65 567,-576 479.26,-547.74 371.33,-532.92 315.83,-526.69"/>
<polygon fill="black" stroke="black" points="316.09,-523.19 305.77,-525.58 315.33,-530.15 316.09,-523.19"/>
</g>
<!-- 7 -->
<g id="node12" class="node">
<title>7</title>
<ellipse fill="none" stroke="black" cx="603" cy="-522" rx="27" ry="18"/>
<text text-anchor="middle" x="603" y="-518.3" font-family="Times,serif" font-size="14.00">7</text>
</g>
<!-- &#45;45&#45;&gt;7 -->
<g id="edge11" class="edge">
<title>&#45;45&#45;&gt;7</title>
<path fill="none" stroke="black" d="M603,-575.7C603,-567.98 603,-558.71 603,-550.11"/>
<polygon fill="black" stroke="black" points="606.5,-550.1 603,-540.1 599.5,-550.1 606.5,-550.1"/>
</g>
<!-- &#45;67 -->
<g id="node13" class="node">
<title>&#45;67</title>
<ellipse fill="none" stroke="black" cx="171" cy="-450" rx="27" ry="18"/>
<text text-anchor="middle" x="171" y="-446.3" font-family="Times,serif" font-size="14.00">&#45;67</text>
</g>
<!-- &#45;56&#45;&gt;&#45;67 -->
<g id="edge12" class="edge">
<title>&#45;56&#45;&gt;&#45;67</title>
<path fill="none" stroke="black" d="M260.19,-508.81C243,-497.67 217.38,-481.06 198.01,-468.5"/>
<polygon fill="black" stroke="black" points="199.89,-465.56 189.6,-463.05 196.08,-471.43 199.89,-465.56"/>
</g>
<!-- &#45;49 -->
<g id="node14" class="node">
<title>&#45;49</title>
<ellipse fill="none" stroke="black" cx="279" cy="-450" rx="27" ry="18"/>
<text text-anchor="middle" x="279" y="-446.3" font-family="Times,serif" font-size="14.00">&#45;49</text>
</g>
<!-- &#45;56&#45;&gt;&#45;49 -->
<g id="edge13" class="edge">
<title>&#45;56&#45;&gt;&#45;49</title>
<path fill="none" stroke="black" d="M279,-503.7C279,-495.98 279,-486.71 279,-478.11"/>
<polygon fill="black" stroke="black" points="282.5,-478.1 279,-468.1 275.5,-478.1 282.5,-478.1"/>
</g>
<!-- &#45;1 -->
<g id="node25" class="node">
<title>&#45;1</title>
<ellipse fill="none" stroke="black" cx="567" cy="-450" rx="27" ry="18"/>
<text text-anchor="middle" x="567" y="-446.3" font-family="Times,serif" font-size="14.00">&#45;1</text>
</g>
<!-- 7&#45;&gt;&#45;1 -->
<g id="edge24" class="edge">
<title>7&#45;&gt;&#45;1</title>
<path fill="none" stroke="black" d="M594.65,-504.76C590.29,-496.28 584.85,-485.71 579.96,-476.2"/>
<polygon fill="black" stroke="black" points="582.99,-474.44 575.3,-467.15 576.77,-477.64 582.99,-474.44"/>
</g>
<!-- 29 -->
<g id="node26" class="node">
<title>29</title>
<ellipse fill="none" stroke="black" cx="706" cy="-450" rx="27" ry="18"/>
<text text-anchor="middle" x="706" y="-446.3" font-family="Times,serif" font-size="14.00">29</text>
</g>
<!-- 7&#45;&gt;29 -->
<g id="edge25" class="edge">
<title>7&#45;&gt;29</title>
<path fill="none" stroke="black" d="M621.41,-508.49C637.53,-497.54 661.13,-481.49 679.31,-469.14"/>
<polygon fill="black" stroke="black" points="681.44,-471.92 687.75,-463.41 677.51,-466.13 681.44,-471.92"/>
</g>
<!-- &#45;72 -->
<g id="node15" class="node">
<title>&#45;72</title>
<ellipse fill="none" stroke="black" cx="99" cy="-378" rx="27" ry="18"/>
<text text-anchor="middle" x="99" y="-374.3" font-family="Times,serif" font-size="14.00">&#45;72</text>
</g>
<!-- &#45;67&#45;&gt;&#45;72 -->
<g id="edge14" class="edge">
<title>&#45;67&#45;&gt;&#45;72</title>
<path fill="none" stroke="black" d="M156.43,-434.83C146.25,-424.94 132.48,-411.55 120.97,-400.36"/>
<polygon fill="black" stroke="black" points="123.41,-397.85 113.8,-393.38 118.53,-402.87 123.41,-397.85"/>
</g>
<!-- &#45;62 -->
<g id="node16" class="node">
<title>&#45;62</title>
<ellipse fill="none" stroke="black" cx="171" cy="-378" rx="27" ry="18"/>
<text text-anchor="middle" x="171" y="-374.3" font-family="Times,serif" font-size="14.00">&#45;62</text>
</g>
<!-- &#45;67&#45;&gt;&#45;62 -->
<g id="edge15" class="edge">
<title>&#45;67&#45;&gt;&#45;62</title>
<path fill="none" stroke="black" d="M171,-431.7C171,-423.98 171,-414.71 171,-406.11"/>
<polygon fill="black" stroke="black" points="174.5,-406.1 171,-396.1 167.5,-406.1 174.5,-406.1"/>
</g>
<!-- &#45;54 -->
<g id="node21" class="node">
<title>&#45;54</title>
<ellipse fill="none" stroke="black" cx="243" cy="-378" rx="27" ry="18"/>
<text text-anchor="middle" x="243" y="-374.3" font-family="Times,serif" font-size="14.00">&#45;54</text>
</g>
<!-- &#45;49&#45;&gt;&#45;54 -->
<g id="edge20" class="edge">
<title>&#45;49&#45;&gt;&#45;54</title>
<path fill="none" stroke="black" d="M270.65,-432.76C266.29,-424.28 260.85,-413.71 255.96,-404.2"/>
<polygon fill="black" stroke="black" points="258.99,-402.44 251.3,-395.15 252.77,-405.64 258.99,-402.44"/>
</g>
<!-- &#45;47 -->
<g id="node22" class="node">
<title>&#45;47</title>
<ellipse fill="none" stroke="black" cx="315" cy="-378" rx="27" ry="18"/>
<text text-anchor="middle" x="315" y="-374.3" font-family="Times,serif" font-size="14.00">&#45;47</text>
</g>
<!-- &#45;49&#45;&gt;&#45;47 -->
<g id="edge21" class="edge">
<title>&#45;49&#45;&gt;&#45;47</title>
<path fill="none" stroke="black" d="M287.35,-432.76C291.71,-424.28 297.15,-413.71 302.04,-404.2"/>
<polygon fill="black" stroke="black" points="305.23,-405.64 306.7,-395.15 299.01,-402.44 305.23,-405.64"/>
</g>
<!-- &#45;73 -->
<g id="node17" class="node">
<title>&#45;73</title>
<ellipse fill="none" stroke="black" cx="27" cy="-306" rx="27" ry="18"/>
<text text-anchor="middle" x="27" y="-302.3" font-family="Times,serif" font-size="14.00">&#45;73</text>
</g>
<!-- &#45;72&#45;&gt;&#45;73 -->
<g id="edge16" class="edge">
<title>&#45;72&#45;&gt;&#45;73</title>
<path fill="none" stroke="black" d="M84.43,-362.83C74.25,-352.94 60.48,-339.55 48.97,-328.36"/>
<polygon fill="black" stroke="black" points="51.41,-325.85 41.8,-321.38 46.53,-330.87 51.41,-325.85"/>
</g>
<!-- &#45;71 -->
<g id="node18" class="node">
<title>&#45;71</title>
<ellipse fill="none" stroke="black" cx="99" cy="-306" rx="27" ry="18"/>
<text text-anchor="middle" x="99" y="-302.3" font-family="Times,serif" font-size="14.00">&#45;71</text>
</g>
<!-- &#45;72&#45;&gt;&#45;71 -->
<g id="edge17" class="edge">
<title>&#45;72&#45;&gt;&#45;71</title>
<path fill="none" stroke="black" d="M99,-359.7C99,-351.98 99,-342.71 99,-334.11"/>
<polygon fill="black" stroke="black" points="102.5,-334.1 99,-324.1 95.5,-334.1 102.5,-334.1"/>
</g>
<!-- &#45;57 -->
<g id="node20" class="node">
<title>&#45;57</title>
<ellipse fill="none" stroke="black" cx="171" cy="-306" rx="27" ry="18"/>
<text text-anchor="middle" x="171" y="-302.3" font-family="Times,serif" font-size="14.00">&#45;57</text>
</g>
<!-- &#45;62&#45;&gt;&#45;57 -->
<g id="edge19" class="edge">
<title>&#45;62&#45;&gt;&#45;57</title>
<path fill="none" stroke="black" d="M171,-359.7C171,-351.98 171,-342.71 171,-334.11"/>
<polygon fill="black" stroke="black" points="174.5,-334.1 171,-324.1 167.5,-334.1 174.5,-334.1"/>
</g>
<!-- &#45;78 -->
<g id="node19" class="node">
<title>&#45;78</title>
<ellipse fill="none" stroke="black" cx="27" cy="-234" rx="27" ry="18"/>
<text text-anchor="middle" x="27" y="-230.3" font-family="Times,serif" font-size="14.00">&#45;78</text>
</g>
<!-- &#45;73&#45;&gt;&#45;78 -->
<g id="edge18" class="edge">
<title>&#45;73&#45;&gt;&#45;78</title>
<path fill="none" stroke="black" d="M27,-287.7C27,-279.98 27,-270.71 27,-262.11"/>
<polygon fill="black" stroke="black" points="30.5,-262.1 27,-252.1 23.5,-262.1 30.5,-262.1"/>
</g>
<!-- &#45;52 -->
<g id="node23" class="node">
<title>&#45;52</title>
<ellipse fill="none" stroke="black" cx="243" cy="-306" rx="27" ry="18"/>
<text text-anchor="middle" x="243" y="-302.3" font-family="Times,serif" font-size="14.00">&#45;52</text>
</g>
<!-- &#45;54&#45;&gt;&#45;52 -->
<g id="edge22" class="edge">
<title>&#45;54&#45;&gt;&#45;52</title>
<path fill="none" stroke="black" d="M243,-359.7C243,-351.98 243,-342.71 243,-334.11"/>
<polygon fill="black" stroke="black" points="246.5,-334.1 243,-324.1 239.5,-334.1 246.5,-334.1"/>
</g>
<!-- &#45;48 -->
<g id="node24" class="node">
<title>&#45;48</title>
<ellipse fill="none" stroke="black" cx="315" cy="-306" rx="27" ry="18"/>
<text text-anchor="middle" x="315" y="-302.3" font-family="Times,serif" font-size="14.00">&#45;48</text>
</g>
<!-- &#45;47&#45;&gt;&#45;48 -->
<g id="edge23" class="edge">
<title>&#45;47&#45;&gt;&#45;48</title>
<path fill="none" stroke="black" d="M315,-359.7C315,-351.98 315,-342.71 315,-334.11"/>
<polygon fill="black" stroke="black" points="318.5,-334.1 315,-324.1 311.5,-334.1 318.5,-334.1"/>
</g>
<!-- &#45;32 -->
<g id="node27" class="node">
<title>&#45;32</title>
<ellipse fill="none" stroke="black" cx="459" cy="-378" rx="27" ry="18"/>
<text text-anchor="middle" x="459" y="-374.3" font-family="Times,serif" font-size="14.00">&#45;32</text>
</g>
<!-- &#45;1&#45;&gt;&#45;32 -->
<g id="edge26" class="edge">
<title>&#45;1&#45;&gt;&#45;32</title>
<path fill="none" stroke="black" d="M548.19,-436.81C531,-425.67 505.38,-409.06 486.01,-396.5"/>
<polygon fill="black" stroke="black" points="487.89,-393.56 477.6,-391.05 484.08,-399.43 487.89,-393.56"/>
</g>
<!-- 3 -->
<g id="node28" class="node">
<title>3</title>
<ellipse fill="none" stroke="black" cx="567" cy="-378" rx="27" ry="18"/>
<text text-anchor="middle" x="567" y="-374.3" font-family="Times,serif" font-size="14.00">3</text>
</g>
<!-- &#45;1&#45;&gt;3 -->
<g id="edge27" class="edge">
<title>&#45;1&#45;&gt;3</title>
<path fill="none" stroke="black" d="M567,-431.7C567,-423.98 567,-414.71 567,-406.11"/>
<polygon fill="black" stroke="black" points="570.5,-406.1 567,-396.1 563.5,-406.1 570.5,-406.1"/>
</g>
<!-- 11 -->
<g id="node46" class="node">
<title>11</title>
<ellipse fill="none" stroke="black" cx="706" cy="-378" rx="27" ry="18"/>
<text text-anchor="middle" x="706" y="-374.3" font-family="Times,serif" font-size="14.00">11</text>
</g>
<!-- 29&#45;&gt;11 -->
<g id="edge45" class="edge">
<title>29&#45;&gt;11</title>
<path fill="none" stroke="black" d="M706,-431.7C706,-423.98 706,-414.71 706,-406.11"/>
<polygon fill="black" stroke="black" points="709.5,-406.1 706,-396.1 702.5,-406.1 709.5,-406.1"/>
</g>
<!-- 40 -->
<g id="node47" class="node">
<title>40</title>
<ellipse fill="none" stroke="black" cx="810" cy="-378" rx="27" ry="18"/>
<text text-anchor="middle" x="810" y="-374.3" font-family="Times,serif" font-size="14.00">40</text>
</g>
<!-- 29&#45;&gt;40 -->
<g id="edge46" class="edge">
<title>29&#45;&gt;40</title>
<path fill="none" stroke="black" d="M724.59,-436.49C740.86,-425.54 764.69,-409.49 783.05,-397.14"/>
<polygon fill="black" stroke="black" points="785.23,-399.89 791.57,-391.41 781.32,-394.09 785.23,-399.89"/>
</g>
<!-- &#45;34 -->
<g id="node29" class="node">
<title>&#45;34</title>
<ellipse fill="none" stroke="black" cx="387" cy="-306" rx="27" ry="18"/>
<text text-anchor="middle" x="387" y="-302.3" font-family="Times,serif" font-size="14.00">&#45;34</text>
</g>
<!-- &#45;32&#45;&gt;&#45;34 -->
<g id="edge28" class="edge">
<title>&#45;32&#45;&gt;&#45;34</title>
<path fill="none" stroke="black" d="M444.43,-362.83C434.25,-352.94 420.48,-339.55 408.97,-328.36"/>
<polygon fill="black" stroke="black" points="411.41,-325.85 401.8,-321.38 406.53,-330.87 411.41,-325.85"/>
</g>
<!-- &#45;27 -->
<g id="node30" class="node">
<title>&#45;27</title>
<ellipse fill="none" stroke="black" cx="459" cy="-306" rx="27" ry="18"/>
<text text-anchor="middle" x="459" y="-302.3" font-family="Times,serif" font-size="14.00">&#45;27</text>
</g>
<!-- &#45;32&#45;&gt;&#45;27 -->
<g id="edge29" class="edge">
<title>&#45;32&#45;&gt;&#45;27</title>
<path fill="none" stroke="black" d="M459,-359.7C459,-351.98 459,-342.71 459,-334.11"/>
<polygon fill="black" stroke="black" points="462.5,-334.1 459,-324.1 455.5,-334.1 462.5,-334.1"/>
</g>
<!-- 1 -->
<g id="node43" class="node">
<title>1</title>
<ellipse fill="none" stroke="black" cx="531" cy="-306" rx="27" ry="18"/>
<text text-anchor="middle" x="531" y="-302.3" font-family="Times,serif" font-size="14.00">1</text>
</g>
<!-- 3&#45;&gt;1 -->
<g id="edge42" class="edge">
<title>3&#45;&gt;1</title>
<path fill="none" stroke="black" d="M558.65,-360.76C554.29,-352.28 548.85,-341.71 543.96,-332.2"/>
<polygon fill="black" stroke="black" points="546.99,-330.44 539.3,-323.15 540.77,-333.64 546.99,-330.44"/>
</g>
<!-- 5 -->
<g id="node44" class="node">
<title>5</title>
<ellipse fill="none" stroke="black" cx="603" cy="-306" rx="27" ry="18"/>
<text text-anchor="middle" x="603" y="-302.3" font-family="Times,serif" font-size="14.00">5</text>
</g>
<!-- 3&#45;&gt;5 -->
<g id="edge43" class="edge">
<title>3&#45;&gt;5</title>
<path fill="none" stroke="black" d="M575.35,-360.76C579.71,-352.28 585.15,-341.71 590.04,-332.2"/>
<polygon fill="black" stroke="black" points="593.23,-333.64 594.7,-323.15 587.01,-330.44 593.23,-333.64"/>
</g>
<!-- &#45;35 -->
<g id="node31" class="node">
<title>&#45;35</title>
<ellipse fill="none" stroke="black" cx="315" cy="-234" rx="27" ry="18"/>
<text text-anchor="middle" x="315" y="-230.3" font-family="Times,serif" font-size="14.00">&#45;35</text>
</g>
<!-- &#45;34&#45;&gt;&#45;35 -->
<g id="edge30" class="edge">
<title>&#45;34&#45;&gt;&#45;35</title>
<path fill="none" stroke="black" d="M372.43,-290.83C362.25,-280.94 348.48,-267.55 336.97,-256.36"/>
<polygon fill="black" stroke="black" points="339.41,-253.85 329.8,-249.38 334.53,-258.87 339.41,-253.85"/>
</g>
<!-- &#45;33 -->
<g id="node32" class="node">
<title>&#45;33</title>
<ellipse fill="none" stroke="black" cx="387" cy="-234" rx="27" ry="18"/>
<text text-anchor="middle" x="387" y="-230.3" font-family="Times,serif" font-size="14.00">&#45;33</text>
</g>
<!-- &#45;34&#45;&gt;&#45;33 -->
<g id="edge31" class="edge">
<title>&#45;34&#45;&gt;&#45;33</title>
<path fill="none" stroke="black" d="M387,-287.7C387,-279.98 387,-270.71 387,-262.11"/>
<polygon fill="black" stroke="black" points="390.5,-262.1 387,-252.1 383.5,-262.1 390.5,-262.1"/>
</g>
<!-- &#45;31 -->
<g id="node36" class="node">
<title>&#45;31</title>
<ellipse fill="none" stroke="black" cx="459" cy="-234" rx="27" ry="18"/>
<text text-anchor="middle" x="459" y="-230.3" font-family="Times,serif" font-size="14.00">&#45;31</text>
</g>
<!-- &#45;27&#45;&gt;&#45;31 -->
<g id="edge35" class="edge">
<title>&#45;27&#45;&gt;&#45;31</title>
<path fill="none" stroke="black" d="M459,-287.7C459,-279.98 459,-270.71 459,-262.11"/>
<polygon fill="black" stroke="black" points="462.5,-262.1 459,-252.1 455.5,-262.1 462.5,-262.1"/>
</g>
<!-- &#45;18 -->
<g id="node37" class="node">
<title>&#45;18</title>
<ellipse fill="none" stroke="black" cx="531" cy="-234" rx="27" ry="18"/>
<text text-anchor="middle" x="531" y="-230.3" font-family="Times,serif" font-size="14.00">&#45;18</text>
</g>
<!-- &#45;27&#45;&gt;&#45;18 -->
<g id="edge36" class="edge">
<title>&#45;27&#45;&gt;&#45;18</title>
<path fill="none" stroke="black" d="M473.57,-290.83C483.75,-280.94 497.52,-267.55 509.03,-256.36"/>
<polygon fill="black" stroke="black" points="511.47,-258.87 516.2,-249.38 506.59,-253.85 511.47,-258.87"/>
</g>
<!-- &#45;42 -->
<g id="node33" class="node">
<title>&#45;42</title>
<ellipse fill="none" stroke="black" cx="315" cy="-162" rx="27" ry="18"/>
<text text-anchor="middle" x="315" y="-158.3" font-family="Times,serif" font-size="14.00">&#45;42</text>
</g>
<!-- &#45;35&#45;&gt;&#45;42 -->
<g id="edge32" class="edge">
<title>&#45;35&#45;&gt;&#45;42</title>
<path fill="none" stroke="black" d="M315,-215.7C315,-207.98 315,-198.71 315,-190.11"/>
<polygon fill="black" stroke="black" points="318.5,-190.1 315,-180.1 311.5,-190.1 318.5,-190.1"/>
</g>
<!-- &#45;44 -->
<g id="node34" class="node">
<title>&#45;44</title>
<ellipse fill="none" stroke="black" cx="315" cy="-90" rx="27" ry="18"/>
<text text-anchor="middle" x="315" y="-86.3" font-family="Times,serif" font-size="14.00">&#45;44</text>
</g>
<!-- &#45;42&#45;&gt;&#45;44 -->
<g id="edge33" class="edge">
<title>&#45;42&#45;&gt;&#45;44</title>
<path fill="none" stroke="black" d="M315,-143.7C315,-135.98 315,-126.71 315,-118.11"/>
<polygon fill="black" stroke="black" points="318.5,-118.1 315,-108.1 311.5,-118.1 318.5,-118.1"/>
</g>
<!-- &#45;39 -->
<g id="node35" class="node">
<title>&#45;39</title>
<ellipse fill="none" stroke="black" cx="387" cy="-90" rx="27" ry="18"/>
<text text-anchor="middle" x="387" y="-86.3" font-family="Times,serif" font-size="14.00">&#45;39</text>
</g>
<!-- &#45;42&#45;&gt;&#45;39 -->
<g id="edge34" class="edge">
<title>&#45;42&#45;&gt;&#45;39</title>
<path fill="none" stroke="black" d="M329.57,-146.83C339.75,-136.94 353.52,-123.55 365.03,-112.36"/>
<polygon fill="black" stroke="black" points="367.47,-114.87 372.2,-105.38 362.59,-109.85 367.47,-114.87"/>
</g>
<!-- &#45;19 -->
<g id="node38" class="node">
<title>&#45;19</title>
<ellipse fill="none" stroke="black" cx="477" cy="-162" rx="27" ry="18"/>
<text text-anchor="middle" x="477" y="-158.3" font-family="Times,serif" font-size="14.00">&#45;19</text>
</g>
<!-- &#45;18&#45;&gt;&#45;19 -->
<g id="edge37" class="edge">
<title>&#45;18&#45;&gt;&#45;19</title>
<path fill="none" stroke="black" d="M519.02,-217.46C512.02,-208.4 503.06,-196.79 495.21,-186.61"/>
<polygon fill="black" stroke="black" points="497.83,-184.27 488.95,-178.49 492.29,-188.55 497.83,-184.27"/>
</g>
<!-- &#45;10 -->
<g id="node39" class="node">
<title>&#45;10</title>
<ellipse fill="none" stroke="black" cx="549" cy="-162" rx="27" ry="18"/>
<text text-anchor="middle" x="549" y="-158.3" font-family="Times,serif" font-size="14.00">&#45;10</text>
</g>
<!-- &#45;18&#45;&gt;&#45;10 -->
<g id="edge38" class="edge">
<title>&#45;18&#45;&gt;&#45;10</title>
<path fill="none" stroke="black" d="M535.36,-216.05C537.39,-208.14 539.86,-198.54 542.14,-189.69"/>
<polygon fill="black" stroke="black" points="545.58,-190.35 544.68,-179.79 538.8,-188.6 545.58,-190.35"/>
</g>
<!-- &#45;16 -->
<g id="node40" class="node">
<title>&#45;16</title>
<ellipse fill="none" stroke="black" cx="495" cy="-90" rx="27" ry="18"/>
<text text-anchor="middle" x="495" y="-86.3" font-family="Times,serif" font-size="14.00">&#45;16</text>
</g>
<!-- &#45;10&#45;&gt;&#45;16 -->
<g id="edge39" class="edge">
<title>&#45;10&#45;&gt;&#45;16</title>
<path fill="none" stroke="black" d="M537.02,-145.46C530.02,-136.4 521.06,-124.79 513.21,-114.61"/>
<polygon fill="black" stroke="black" points="515.83,-112.27 506.95,-106.49 510.29,-116.55 515.83,-112.27"/>
</g>
<!-- &#45;8 -->
<g id="node41" class="node">
<title>&#45;8</title>
<ellipse fill="none" stroke="black" cx="567" cy="-90" rx="27" ry="18"/>
<text text-anchor="middle" x="567" y="-86.3" font-family="Times,serif" font-size="14.00">&#45;8</text>
</g>
<!-- &#45;10&#45;&gt;&#45;8 -->
<g id="edge40" class="edge">
<title>&#45;10&#45;&gt;&#45;8</title>
<path fill="none" stroke="black" d="M553.36,-144.05C555.39,-136.14 557.86,-126.54 560.14,-117.69"/>
<polygon fill="black" stroke="black" points="563.58,-118.35 562.68,-107.79 556.8,-116.6 563.58,-118.35"/>
</g>
<!-- &#45;6 -->
<g id="node42" class="node">
<title>&#45;6</title>
<ellipse fill="none" stroke="black" cx="567" cy="-18" rx="27" ry="18"/>
<text text-anchor="middle" x="567" y="-14.3" font-family="Times,serif" font-size="14.00">&#45;6</text>
</g>
<!-- &#45;8&#45;&gt;&#45;6 -->
<g id="edge41" class="edge">
<title>&#45;8&#45;&gt;&#45;6</title>
<path fill="none" stroke="black" d="M567,-71.7C567,-63.98 567,-54.71 567,-46.11"/>
<polygon fill="black" stroke="black" points="570.5,-46.1 567,-36.1 563.5,-46.1 570.5,-46.1"/>
</g>
<!-- 4 -->
<g id="node45" class="node">
<title>4</title>
<ellipse fill="none" stroke="black" cx="603" cy="-234" rx="27" ry="18"/>
<text text-anchor="middle" x="603" y="-230.3" font-family="Times,serif" font-size="14.00">4</text>
</g>
<!-- 5&#45;&gt;4 -->
<g id="edge44" class="edge">
<title>5&#45;&gt;4</title>
<path fill="none" stroke="black" d="M603,-287.7C603,-279.98 603,-270.71 603,-262.11"/>
<polygon fill="black" stroke="black" points="606.5,-262.1 603,-252.1 599.5,-262.1 606.5,-262.1"/>
</g>
<!-- 10 -->
<g id="node48" class="node">
<title>10</title>
<ellipse fill="none" stroke="black" cx="675" cy="-306" rx="27" ry="18"/>
<text text-anchor="middle" x="675" y="-302.3" font-family="Times,serif" font-size="14.00">10</text>
</g>
<!-- 11&#45;&gt;10 -->
<g id="edge47" class="edge">
<title>11&#45;&gt;10</title>
<path fill="none" stroke="black" d="M698.65,-360.41C694.99,-352.13 690.47,-341.92 686.36,-332.66"/>
<polygon fill="black" stroke="black" points="689.54,-331.2 682.29,-323.47 683.14,-334.03 689.54,-331.2"/>
</g>
<!-- 24 -->
<g id="node49" class="node">
<title>24</title>
<ellipse fill="none" stroke="black" cx="747" cy="-306" rx="27" ry="18"/>
<text text-anchor="middle" x="747" y="-302.3" font-family="Times,serif" font-size="14.00">24</text>
</g>
<!-- 11&#45;&gt;24 -->
<g id="edge48" class="edge">
<title>11&#45;&gt;24</title>
<path fill="none" stroke="black" d="M715.51,-360.76C720.53,-352.19 726.8,-341.49 732.42,-331.9"/>
<polygon fill="black" stroke="black" points="735.51,-333.55 737.54,-323.15 729.47,-330.01 735.51,-333.55"/>
</g>
<!-- 39 -->
<g id="node55" class="node">
<title>39</title>
<ellipse fill="none" stroke="black" cx="819" cy="-306" rx="27" ry="18"/>
<text text-anchor="middle" x="819" y="-302.3" font-family="Times,serif" font-size="14.00">39</text>
</g>
<!-- 40&#45;&gt;39 -->
<g id="edge54" class="edge">
<title>40&#45;&gt;39</title>
<path fill="none" stroke="black" d="M812.18,-360.05C813.17,-352.35 814.37,-343.03 815.48,-334.36"/>
<polygon fill="black" stroke="black" points="818.98,-334.64 816.78,-324.28 812.03,-333.75 818.98,-334.64"/>
</g>
<!-- 50 -->
<g id="node56" class="node">
<title>50</title>
<ellipse fill="none" stroke="black" cx="891" cy="-306" rx="27" ry="18"/>
<text text-anchor="middle" x="891" y="-302.3" font-family="Times,serif" font-size="14.00">50</text>
</g>
<!-- 40&#45;&gt;50 -->
<g id="edge55" class="edge">
<title>40&#45;&gt;50</title>
<path fill="none" stroke="black" d="M826,-363.17C837.76,-353.01 853.94,-339.03 867.21,-327.56"/>
<polygon fill="black" stroke="black" points="869.75,-329.99 875.03,-320.8 865.18,-324.69 869.75,-329.99"/>
</g>
<!-- 17 -->
<g id="node50" class="node">
<title>17</title>
<ellipse fill="none" stroke="black" cx="709" cy="-234" rx="27" ry="18"/>
<text text-anchor="middle" x="709" y="-230.3" font-family="Times,serif" font-size="14.00">17</text>
</g>
<!-- 24&#45;&gt;17 -->
<g id="edge49" class="edge">
<title>24&#45;&gt;17</title>
<path fill="none" stroke="black" d="M738.19,-288.76C733.58,-280.28 727.84,-269.71 722.68,-260.2"/>
<polygon fill="black" stroke="black" points="725.61,-258.27 717.77,-251.15 719.46,-261.61 725.61,-258.27"/>
</g>
<!-- 27 -->
<g id="node51" class="node">
<title>27</title>
<ellipse fill="none" stroke="black" cx="781" cy="-234" rx="27" ry="18"/>
<text text-anchor="middle" x="781" y="-230.3" font-family="Times,serif" font-size="14.00">27</text>
</g>
<!-- 24&#45;&gt;27 -->
<g id="edge50" class="edge">
<title>24&#45;&gt;27</title>
<path fill="none" stroke="black" d="M754.89,-288.76C758.9,-280.49 763.89,-270.23 768.42,-260.9"/>
<polygon fill="black" stroke="black" points="771.7,-262.16 772.92,-251.63 765.4,-259.1 771.7,-262.16"/>
</g>
<!-- 16 -->
<g id="node52" class="node">
<title>16</title>
<ellipse fill="none" stroke="black" cx="657" cy="-162" rx="27" ry="18"/>
<text text-anchor="middle" x="657" y="-158.3" font-family="Times,serif" font-size="14.00">16</text>
</g>
<!-- 17&#45;&gt;16 -->
<g id="edge51" class="edge">
<title>17&#45;&gt;16</title>
<path fill="none" stroke="black" d="M697.46,-217.46C690.73,-208.4 682.1,-196.79 674.54,-186.61"/>
<polygon fill="black" stroke="black" points="677.28,-184.43 668.51,-178.49 671.66,-188.61 677.28,-184.43"/>
</g>
<!-- 23 -->
<g id="node53" class="node">
<title>23</title>
<ellipse fill="none" stroke="black" cx="729" cy="-162" rx="27" ry="18"/>
<text text-anchor="middle" x="729" y="-158.3" font-family="Times,serif" font-size="14.00">23</text>
</g>
<!-- 17&#45;&gt;23 -->
<g id="edge52" class="edge">
<title>17&#45;&gt;23</title>
<path fill="none" stroke="black" d="M713.84,-216.05C716.1,-208.14 718.85,-198.54 721.37,-189.69"/>
<polygon fill="black" stroke="black" points="724.82,-190.37 724.2,-179.79 718.09,-188.44 724.82,-190.37"/>
</g>
<!-- 14 -->
<g id="node54" class="node">
<title>14</title>
<ellipse fill="none" stroke="black" cx="657" cy="-90" rx="27" ry="18"/>
<text text-anchor="middle" x="657" y="-86.3" font-family="Times,serif" font-size="14.00">14</text>
</g>
<!-- 16&#45;&gt;14 -->
<g id="edge53" class="edge">
<title>16&#45;&gt;14</title>
<path fill="none" stroke="black" d="M657,-143.7C657,-135.98 657,-126.71 657,-118.11"/>
<polygon fill="black" stroke="black" points="660.5,-118.1 657,-108.1 653.5,-118.1 660.5,-118.1"/>
</g>
<!-- 47 -->
<g id="node57" class="node">
<title>47</title>
<ellipse fill="none" stroke="black" cx="857" cy="-234" rx="27" ry="18"/>
<text text-anchor="middle" x="857" y="-230.3" font-family="Times,serif" font-size="14.00">47</text>
</g>
<!-- 50&#45;&gt;47 -->
<g id="edge56" class="edge">
<title>50&#45;&gt;47</title>
<path fill="none" stroke="black" d="M883.11,-288.76C879.1,-280.49 874.11,-270.23 869.58,-260.9"/>
<polygon fill="black" stroke="black" points="872.6,-259.1 865.08,-251.63 866.3,-262.16 872.6,-259.1"/>
</g>
<!-- 52 -->
<g id="node58" class="node">
<title>52</title>
<ellipse fill="none" stroke="black" cx="929" cy="-234" rx="27" ry="18"/>
<text text-anchor="middle" x="929" y="-230.3" font-family="Times,serif" font-size="14.00">52</text>
</g>
<!-- 50&#45;&gt;52 -->
<g id="edge57" class="edge">
<title>50&#45;&gt;52</title>
<path fill="none" stroke="black" d="M899.81,-288.76C904.42,-280.28 910.16,-269.71 915.32,-260.2"/>
<polygon fill="black" stroke="black" points="918.54,-261.61 920.23,-251.15 912.39,-258.27 918.54,-261.61"/>
</g>
<!-- 41 -->
<g id="node59" class="node">
<title>41</title>
<ellipse fill="none" stroke="black" cx="837" cy="-162" rx="27" ry="18"/>
<text text-anchor="middle" x="837" y="-158.3" font-family="Times,serif" font-size="14.00">41</text>
</g>
<!-- 47&#45;&gt;41 -->
<g id="edge58" class="edge">
<title>47&#45;&gt;41</title>
<path fill="none" stroke="black" d="M852.16,-216.05C849.9,-208.14 847.15,-198.54 844.63,-189.69"/>
<polygon fill="black" stroke="black" points="847.91,-188.44 841.8,-179.79 841.18,-190.37 847.91,-188.44"/>
</g>
<!-- 49 -->
<g id="node60" class="node">
<title>49</title>
<ellipse fill="none" stroke="black" cx="909" cy="-162" rx="27" ry="18"/>
<text text-anchor="middle" x="909" y="-158.3" font-family="Times,serif" font-size="14.00">49</text>
</g>
<!-- 47&#45;&gt;49 -->
<g id="edge59" class="edge">
<title>47&#45;&gt;49</title>
<path fill="none" stroke="black" d="M868.54,-217.46C875.27,-208.4 883.9,-196.79 891.46,-186.61"/>
<polygon fill="black" stroke="black" points="894.34,-188.61 897.49,-178.49 888.72,-184.43 894.34,-188.61"/>
</g>
<!-- 62 -->
<g id="node63" class="node">
<title>62</title>
<ellipse fill="none" stroke="black" cx="931" cy="-522" rx="27" ry="18"/>
<text text-anchor="middle" x="931" y="-518.3" font-family="Times,serif" font-size="14.00">62</text>
</g>
<!-- 65&#45;&gt;62 -->
<g id="edge62" class="edge">
<title>65&#45;&gt;62</title>
<path fill="none" stroke="black" d="M943.88,-576.05C941.99,-568.26 939.7,-558.82 937.58,-550.08"/>
<polygon fill="black" stroke="black" points="940.96,-549.17 935.2,-540.28 934.15,-550.82 940.96,-549.17"/>
</g>
<!-- 67 -->
<g id="node64" class="node">
<title>67</title>
<ellipse fill="none" stroke="black" cx="1003" cy="-522" rx="27" ry="18"/>
<text text-anchor="middle" x="1003" y="-518.3" font-family="Times,serif" font-size="14.00">67</text>
</g>
<!-- 65&#45;&gt;67 -->
<g id="edge63" class="edge">
<title>65&#45;&gt;67</title>
<path fill="none" stroke="black" d="M959.93,-577.81C967.21,-568.55 976.66,-556.52 984.85,-546.09"/>
<polygon fill="black" stroke="black" points="987.66,-548.18 991.09,-538.16 982.16,-543.86 987.66,-548.18"/>
</g>
<!-- 98 -->
<g id="node72" class="node">
<title>98</title>
<ellipse fill="none" stroke="black" cx="1075" cy="-522" rx="27" ry="18"/>
<text text-anchor="middle" x="1075" y="-518.3" font-family="Times,serif" font-size="14.00">98</text>
</g>
<!-- 100&#45;&gt;98 -->
<g id="edge71" class="edge">
<title>100&#45;&gt;98</title>
<path fill="none" stroke="black" d="M1061.36,-576.05C1063.39,-568.14 1065.86,-558.54 1068.14,-549.69"/>
<polygon fill="black" stroke="black" points="1071.58,-550.35 1070.68,-539.79 1064.8,-548.6 1071.58,-550.35"/>
</g>
<!-- 61 -->
<g id="node65" class="node">
<title>61</title>
<ellipse fill="none" stroke="black" cx="859" cy="-450" rx="27" ry="18"/>
<text text-anchor="middle" x="859" y="-446.3" font-family="Times,serif" font-size="14.00">61</text>
</g>
<!-- 62&#45;&gt;61 -->
<g id="edge64" class="edge">
<title>62&#45;&gt;61</title>
<path fill="none" stroke="black" d="M916.43,-506.83C906.25,-496.94 892.48,-483.55 880.97,-472.36"/>
<polygon fill="black" stroke="black" points="883.41,-469.85 873.8,-465.38 878.53,-474.87 883.41,-469.85"/>
</g>
<!-- 63 -->
<g id="node66" class="node">
<title>63</title>
<ellipse fill="none" stroke="black" cx="931" cy="-450" rx="27" ry="18"/>
<text text-anchor="middle" x="931" y="-446.3" font-family="Times,serif" font-size="14.00">63</text>
</g>
<!-- 62&#45;&gt;63 -->
<g id="edge65" class="edge">
<title>62&#45;&gt;63</title>
<path fill="none" stroke="black" d="M931,-503.7C931,-495.98 931,-486.71 931,-478.11"/>
<polygon fill="black" stroke="black" points="934.5,-478.1 931,-468.1 927.5,-478.1 934.5,-478.1"/>
</g>
<!-- 71 -->
<g id="node68" class="node">
<title>71</title>
<ellipse fill="none" stroke="black" cx="1003" cy="-450" rx="27" ry="18"/>
<text text-anchor="middle" x="1003" y="-446.3" font-family="Times,serif" font-size="14.00">71</text>
</g>
<!-- 67&#45;&gt;71 -->
<g id="edge67" class="edge">
<title>67&#45;&gt;71</title>
<path fill="none" stroke="black" d="M1003,-503.7C1003,-495.98 1003,-486.71 1003,-478.11"/>
<polygon fill="black" stroke="black" points="1006.5,-478.1 1003,-468.1 999.5,-478.1 1006.5,-478.1"/>
</g>
<!-- 58 -->
<g id="node67" class="node">
<title>58</title>
<ellipse fill="none" stroke="black" cx="882" cy="-378" rx="27" ry="18"/>
<text text-anchor="middle" x="882" y="-374.3" font-family="Times,serif" font-size="14.00">58</text>
</g>
<!-- 61&#45;&gt;58 -->
<g id="edge66" class="edge">
<title>61&#45;&gt;58</title>
<path fill="none" stroke="black" d="M864.57,-432.05C867.2,-424.06 870.39,-414.33 873.33,-405.4"/>
<polygon fill="black" stroke="black" points="876.69,-406.38 876.48,-395.79 870.04,-404.2 876.69,-406.38"/>
</g>
<!-- 75 -->
<g id="node69" class="node">
<title>75</title>
<ellipse fill="none" stroke="black" cx="1003" cy="-378" rx="27" ry="18"/>
<text text-anchor="middle" x="1003" y="-374.3" font-family="Times,serif" font-size="14.00">75</text>
</g>
<!-- 71&#45;&gt;75 -->
<g id="edge68" class="edge">
<title>71&#45;&gt;75</title>
<path fill="none" stroke="black" d="M1003,-431.7C1003,-423.98 1003,-414.71 1003,-406.11"/>
<polygon fill="black" stroke="black" points="1006.5,-406.1 1003,-396.1 999.5,-406.1 1006.5,-406.1"/>
</g>
<!-- 72 -->
<g id="node70" class="node">
<title>72</title>
<ellipse fill="none" stroke="black" cx="1003" cy="-306" rx="27" ry="18"/>
<text text-anchor="middle" x="1003" y="-302.3" font-family="Times,serif" font-size="14.00">72</text>
</g>
<!-- 75&#45;&gt;72 -->
<g id="edge69" class="edge">
<title>75&#45;&gt;72</title>
<path fill="none" stroke="black" d="M1003,-359.7C1003,-351.98 1003,-342.71 1003,-334.11"/>
<polygon fill="black" stroke="black" points="1006.5,-334.1 1003,-324.1 999.5,-334.1 1006.5,-334.1"/>
</g>
<!-- 73 -->
<g id="node71" class="node">
<title>73</title>
<ellipse fill="none" stroke="black" cx="1003" cy="-234" rx="27" ry="18"/>
<text text-anchor="middle" x="1003" y="-230.3" font-family="Times,serif" font-size="14.00">73</text>
</g>
<!-- 72&#45;&gt;73 -->
<g id="edge70" class="edge">
<title>72&#45;&gt;73</title>
<path fill="none" stroke="black" d="M1003,-287.7C1003,-279.98 1003,-270.71 1003,-262.11"/>
<polygon fill="black" stroke="black" points="1006.5,-262.1 1003,-252.1 999.5,-262.1 1006.5,-262.1"/>
</g>
<!-- 90 -->
<g id="node73" class="node">
<title>90</title>
<ellipse fill="none" stroke="black" cx="1075" cy="-450" rx="27" ry="18"/>
<text text-anchor="middle" x="1075" y="-446.3" font-family="Times,serif" font-size="14.00">90</text>
</g>
<!-- 98&#45;&gt;90 -->
<g id="edge72" class="edge">
<title>98&#45;&gt;90</title>
<path fill="none" stroke="black" d="M1075,-503.7C1075,-495.98 1075,-486.71 1075,-478.11"/>
<polygon fill="black" stroke="black" points="1078.5,-478.1 1075,-468.1 1071.5,-478.1 1078.5,-478.1"/>
</g>
<!-- 81 -->
<g id="node74" class="node">
<title>81</title>
<ellipse fill="none" stroke="black" cx="1075" cy="-378" rx="27" ry="18"/>
<text text-anchor="middle" x="1075" y="-374.3" font-family="Times,serif" font-size="14.00">81</text>
</g>
<!-- 90&#45;&gt;81 -->
<g id="edge73" class="edge">
<title>90&#45;&gt;81</title>
<path fill="none" stroke="black" d="M1075,-431.7C1075,-423.98 1075,-414.71 1075,-406.11"/>
<polygon fill="black" stroke="black" points="1078.5,-406.1 1075,-396.1 1071.5,-406.1 1078.5,-406.1"/>
</g>
<!-- 91 -->
<g id="node75" class="node">
<title>91</title>
<ellipse fill="none" stroke="black" cx="1147" cy="-378" rx="27" ry="18"/>
<text text-anchor="middle" x="1147" y="-374.3" font-family="Times,serif" font-size="14.00">91</text>
</g>
<!-- 90&#45;&gt;91 -->
<g id="edge74" class="edge">
<title>90&#45;&gt;91</title>
<path fill="none" stroke="black" d="M1089.57,-434.83C1099.75,-424.94 1113.52,-411.55 1125.03,-400.36"/>
<polygon fill="black" stroke="black" points="1127.47,-402.87 1132.2,-393.38 1122.59,-397.85 1127.47,-402.87"/>
</g>
<!-- 83 -->
<g id="node76" class="node">
<title>83</title>
<ellipse fill="none" stroke="black" cx="1075" cy="-306" rx="27" ry="18"/>
<text text-anchor="middle" x="1075" y="-302.3" font-family="Times,serif" font-size="14.00">83</text>
</g>
<!-- 81&#45;&gt;83 -->
<g id="edge75" class="edge">
<title>81&#45;&gt;83</title>
<path fill="none" stroke="black" d="M1075,-359.7C1075,-351.98 1075,-342.71 1075,-334.11"/>
<polygon fill="black" stroke="black" points="1078.5,-334.1 1075,-324.1 1071.5,-334.1 1078.5,-334.1"/>
</g>
</g>
</svg>
