<?xml version="1.0" encoding="UTF-8" standalone="no"?>
<!DOCTYPE svg PUBLIC "-//W3C//DTD SVG 1.1//EN"
 "http://www.w3.org/Graphics/SVG/1.1/DTD/svg11.dtd">
<!-- Generated by graphviz version 2.43.0 (0)
 -->
<!-- Title: Tree Pages: 1 -->
<svg width="657pt" height="332pt"
 viewBox="0.00 0.00 656.60 332.00" xmlns="http://www.w3.org/2000/svg" xmlns:xlink="http://www.w3.org/1999/xlink">
<g id="graph0" class="graph" transform="scale(1 1) rotate(0) translate(4 328)">
<title>Tree</title>
<polygon fill="white" stroke="transparent" points="-4,4 -4,-328 652.6,-328 652.6,4 -4,4"/>
<!-- &#45;17 -->
<g id="node1" class="node">
<title>&#45;17</title>
<ellipse fill="none" stroke="black" cx="279" cy="-306" rx="27" ry="18"/>
<text text-anchor="middle" x="279" y="-302.3" font-family="Times,serif" font-size="14.00">&#45;17</text>
</g>
<!-- &#45;48 -->
<g id="node2" class="node">
<title>&#45;48</title>
<ellipse fill="none" stroke="black" cx="207" cy="-234" rx="27" ry="18"/>
<text text-anchor="middle" x="207" y="-230.3" font-family="Times,serif" font-size="14.00">&#45;48</text>
</g>
<!-- &#45;17&#45;&gt;&#45;48 -->
<g id="edge1" class="edge">
<title>&#45;17&#45;&gt;&#45;48</title>
<path fill="none" stroke="black" d="M264.43,-290.83C254.25,-280.94 240.48,-267.55 228.97,-256.36"/>
<polygon fill="black" stroke="black" points="231.41,-253.85 221.8,-249.38 226.53,-258.87 231.41,-253.85"/>
</g>
<!-- 59 -->
<g id="node3" class="node">
<title>59</title>
<ellipse fill="none" stroke="black" cx="353" cy="-234" rx="27" ry="18"/>
<text text-anchor="middle" x="353" y="-230.3" font-family="Times,serif" font-size="14.00">59</text>
</g>
<!-- &#45;17&#45;&gt;59 -->
<g id="edge2" class="edge">
<title>&#45;17&#45;&gt;59</title>
<path fill="none" stroke="black" d="M293.98,-290.83C304.51,-280.87 318.78,-267.37 330.66,-256.14"/>
<polygon fill="black" stroke="black" points="333.19,-258.56 338.05,-249.14 328.38,-253.47 333.19,-258.56"/>
</g>
<!-- &#45;84 -->
<g id="node4" class="node">
<title>&#45;84</title>
<ellipse fill="none" stroke="black" cx="99" cy="-162" rx="27" ry="18"/>
<text text-anchor="middle" x="99" y="-158.3" font-family="Times,serif" font-size="14.00">&#45;84</text>
</g>
<!-- &#45;48&#45;&gt;&#45;84 -->
<g id="edge3" class="edge">
<title>&#45;48&#45;&gt;&#45;84</title>
<path fill="none" stroke="black" d="M188.19,-220.81C171,-209.67 145.38,-193.06 126.01,-180.5"/>
<polygon fill="black" stroke="black" points="127.89,-177.56 117.6,-175.05 124.08,-183.43 127.89,-177.56"/>
</g>
<!-- &#45;31 -->
<g id="node5" class="node">
<title>&#45;31</title>
<ellipse fill="none" stroke="black" cx="207" cy="-162" rx="27" ry="18"/>
<text text-anchor="middle" x="207" y="-158.3" font-family="Times,serif" font-size="14.00">&#45;31</text>
</g>
<!-- &#45;48&#45;&gt;&#45;31 -->
<g id="edge4" class="edge">
<title>&#45;48&#45;&gt;&#45;31</title>
<path fill="none" stroke="black" d="M207,-215.7C207,-207.98 207,-198.71 207,-190.11"/>
<polygon fill="black" stroke="black" points="210.5,-190.1 207,-180.1 203.5,-190.1 210.5,-190.1"/>
</g>
<!-- 28 -->
<g id="node12" class="node">
<title>28</title>
<ellipse fill="none" stroke="black" cx="353" cy="-162" rx="27" ry="18"/>
<text text-anchor="middle" x="353" y="-158.3" font-family="Times,serif" font-size="14.00">28</text>
</g>
<!-- 59&#45;&gt;28 -->
<g id="edge11" class="edge">
<title>59&#45;&gt;28</title>
<path fill="none" stroke="black" d="M353,-215.7C353,-207.98 353,-198.71 353,-190.11"/>
<polygon fill="black" stroke="black" points="356.5,-190.1 353,-180.1 349.5,-190.1 356.5,-190.1"/>
</g>
<!-- 82 -->
<g id="node13" class="node">
<title>82</title>
<ellipse fill="none" stroke="black" cx="467" cy="-162" rx="27" ry="18"/>
<text text-anchor="middle" x="467" y="-158.3" font-family="Times,serif" font-size="14.00">82</text>
</g>
<!-- 59&#45;&gt;82 -->
<g id="edge12" class="edge">
<title>59&#45;&gt;82</title>
<path fill="none" stroke="black" d="M372.34,-221.13C390.6,-209.91 418.19,-192.97 438.89,-180.26"/>
<polygon fill="black" stroke="black" points="440.88,-183.15 447.57,-174.93 437.21,-177.18 440.88,-183.15"/>
</g>
<!-- &#45;94 -->
<g id="node6" class="node">
<title>&#45;94</title>
<ellipse fill="none" stroke="black" cx="27" cy="-90" rx="27" ry="18"/>
<text text-anchor="middle" x="27" y="-86.3" font-family="Times,serif" font-size="14.00">&#45;94</text>
</g>
<!-- &#45;84&#45;&gt;&#45;94 -->
<g id="edge5" class="edge">
<title>&#45;84&#45;&gt;&#45;94</title>
<path fill="none" stroke="black" d="M84.43,-146.83C74.25,-136.94 60.48,-123.55 48.97,-112.36"/>
<polygon fill="black" stroke="black" points="51.41,-109.85 41.8,-105.38 46.53,-114.87 51.41,-109.85"/>
</g>
<!-- &#45;77 -->
<g id="node7" class="node">
<title>&#45;77</title>
<ellipse fill="none" stroke="black" cx="99" cy="-90" rx="27" ry="18"/>
<text text-anchor="middle" x="99" y="-86.3" font-family="Times,serif" font-size="14.00">&#45;77</text>
</g>
<!-- &#45;84&#45;&gt;&#45;77 -->
<g id="edge6" class="edge">
<title>&#45;84&#45;&gt;&#45;77</title>
<path fill="none" stroke="black" d="M99,-143.7C99,-135.98 99,-126.71 99,-118.11"/>
<polygon fill="black" stroke="black" points="102.5,-118.1 99,-108.1 95.5,-118.1 102.5,-118.1"/>
</g>
<!-- &#45;38 -->
<g id="node10" class="node">
<title>&#45;38</title>
<ellipse fill="none" stroke="black" cx="171" cy="-90" rx="27" ry="18"/>
<text text-anchor="middle" x="171" y="-86.3" font-family="Times,serif" font-size="14.00">&#45;38</text>
</g>
<!-- &#45;31&#45;&gt;&#45;38 -->
<g id="edge9" class="edge">
<title>&#45;31&#45;&gt;&#45;38</title>
<path fill="none" stroke="black" d="M198.65,-144.76C194.29,-136.28 188.85,-125.71 183.96,-116.2"/>
<polygon fill="black" stroke="black" points="186.99,-114.44 179.3,-107.15 180.77,-117.64 186.99,-114.44"/>
</g>
<!-- &#45;26 -->
<g id="node11" class="node">
<title>&#45;26</title>
<ellipse fill="none" stroke="black" cx="243" cy="-90" rx="27" ry="18"/>
<text text-anchor="middle" x="243" y="-86.3" font-family="Times,serif" font-size="14.00">&#45;26</text>
</g>
<!-- &#45;31&#45;&gt;&#45;26 -->
<g id="edge10" class="edge">
<title>&#45;31&#45;&gt;&#45;26</title>
<path fill="none" stroke="black" d="M215.35,-144.76C219.71,-136.28 225.15,-125.71 230.04,-116.2"/>
<polygon fill="black" stroke="black" points="233.23,-117.64 234.7,-107.15 227.01,-114.44 233.23,-117.64"/>
</g>
<!-- &#45;83 -->
<g id="node8" class="node">
<title>&#45;83</title>
<ellipse fill="none" stroke="black" cx="63" cy="-18" rx="27" ry="18"/>
<text text-anchor="middle" x="63" y="-14.3" font-family="Times,serif" font-size="14.00">&#45;83</text>
</g>
<!-- &#45;77&#45;&gt;&#45;83 -->
<g id="edge7" class="edge">
<title>&#45;77&#45;&gt;&#45;83</title>
<path fill="none" stroke="black" d="M90.65,-72.76C86.29,-64.28 80.85,-53.71 75.96,-44.2"/>
<polygon fill="black" stroke="black" points="78.99,-42.44 71.3,-35.15 72.77,-45.64 78.99,-42.44"/>
</g>
<!-- &#45;52 -->
<g id="node9" class="node">
<title>&#45;52</title>
<ellipse fill="none" stroke="black" cx="135" cy="-18" rx="27" ry="18"/>
<text text-anchor="middle" x="135" y="-14.3" font-family="Times,serif" font-size="14.00">&#45;52</text>
</g>
<!-- &#45;77&#45;&gt;&#45;52 -->
<g id="edge8" class="edge">
<title>&#45;77&#45;&gt;&#45;52</title>
<path fill="none" stroke="black" d="M107.35,-72.76C111.71,-64.28 117.15,-53.71 122.04,-44.2"/>
<polygon fill="black" stroke="black" points="125.23,-45.64 126.7,-35.15 119.01,-42.44 125.23,-45.64"/>
</g>
<!-- 16 -->
<g id="node14" class="node">
<title>16</title>
<ellipse fill="none" stroke="black" cx="315" cy="-90" rx="27" ry="18"/>
<text text-anchor="middle" x="315" y="-86.3" font-family="Times,serif" font-size="14.00">16</text>
</g>
<!-- 28&#45;&gt;16 -->
<g id="edge13" class="edge">
<title>28&#45;&gt;16</title>
<path fill="none" stroke="black" d="M344.19,-144.76C339.58,-136.28 333.84,-125.71 328.68,-116.2"/>
<polygon fill="black" stroke="black" points="331.61,-114.27 323.77,-107.15 325.46,-117.61 331.61,-114.27"/>
</g>
<!-- N28 -->
<!-- 28&#45;&gt;N28 -->
<!-- 74 -->
<g id="node16" class="node">
<title>74</title>
<ellipse fill="none" stroke="black" cx="467" cy="-90" rx="27" ry="18"/>
<text text-anchor="middle" x="467" y="-86.3" font-family="Times,serif" font-size="14.00">74</text>
</g>
<!-- 82&#45;&gt;74 -->
<g id="edge15" class="edge">
<title>82&#45;&gt;74</title>
<path fill="none" stroke="black" d="M467,-143.7C467,-135.98 467,-126.71 467,-118.11"/>
<polygon fill="black" stroke="black" points="470.5,-118.1 467,-108.1 463.5,-118.1 470.5,-118.1"/>
</g>
<!-- 91 -->
<g id="node17" class="node">
<title>91</title>
<ellipse fill="none" stroke="black" cx="543" cy="-90" rx="27" ry="18"/>
<text text-anchor="middle" x="543" y="-86.3" font-family="Times,serif" font-size="14.00">91</text>
</g>
<!-- 82&#45;&gt;91 -->
<g id="edge16" class="edge">
<title>82&#45;&gt;91</title>
<path fill="none" stroke="black" d="M482.38,-146.83C493.2,-136.87 507.86,-123.37 520.05,-112.14"/>
<polygon fill="black" stroke="black" points="522.66,-114.49 527.64,-105.14 517.92,-109.34 522.66,-114.49"/>
</g>
<!-- 69 -->
<g id="node18" class="node">
<title>69</title>
<ellipse fill="none" stroke="black" cx="395" cy="-18" rx="27" ry="18"/>
<text text-anchor="middle" x="395" y="-14.3" font-family="Times,serif" font-size="14.00">69</text>
</g>
<!-- 74&#45;&gt;69 -->
<g id="edge17" class="edge">
<title>74&#45;&gt;69</title>
<path fill="none" stroke="black" d="M452.43,-74.83C442.25,-64.94 428.48,-51.55 416.97,-40.36"/>
<polygon fill="black" stroke="black" points="419.41,-37.85 409.8,-33.38 414.53,-42.87 419.41,-37.85"/>
</g>
<!-- 80 -->
<g id="node19" class="node">
<title>80</title>
<ellipse fill="none" stroke="black" cx="467" cy="-18" rx="27" ry="18"/>
<text text-anchor="middle" x="467" y="-14.3" font-family="Times,serif" font-size="14.00">80</text>
</g>
<!-- 74&#45;&gt;80 -->
<g id="edge18" class="edge">
<title>74&#45;&gt;80</title>
<path fill="none" stroke="black" d="M467,-71.7C467,-63.98 467,-54.71 467,-46.11"/>
<polygon fill="black" stroke="black" points="470.5,-46.1 467,-36.1 463.5,-46.1 470.5,-46.1"/>
</g>
<!-- N91 -->
<!-- 91&#45;&gt;N91 -->
<!-- 100 -->
<g id="node21" class="node">
<title>100</title>
<ellipse fill="none" stroke="black" cx="620" cy="-18" rx="28.7" ry="18"/>
<text text-anchor="middle" x="620" y="-14.3" font-family="Times,serif" font-size="14.00">100</text>
</g>
<!-- 91&#45;&gt;100 -->
<g id="edge20" class="edge">
<title>91&#45;&gt;100</title>
<path fill="none" stroke="black" d="M558.58,-74.83C569.54,-64.87 584.39,-51.37 596.75,-40.14"/>
<polygon fill="black" stroke="black" points="599.4,-42.46 604.44,-33.14 594.69,-37.28 599.4,-42.46"/>
</g>
</g>
</svg>
