<?xml version="1.0" encoding="UTF-8" standalone="no"?>
<!DOCTYPE svg PUBLIC "-//W3C//DTD SVG 1.1//EN"
 "http://www.w3.org/Graphics/SVG/1.1/DTD/svg11.dtd">
<!-- Generated by graphviz version 2.43.0 (0)
 -->
<!-- Title: Tree Pages: 1 -->
<svg width="524pt" height="764pt"
 viewBox="0.00 0.00 524.15 764.00" xmlns="http://www.w3.org/2000/svg" xmlns:xlink="http://www.w3.org/1999/xlink">
<g id="graph0" class="graph" transform="scale(1 1) rotate(0) translate(4 760)">
<title>Tree</title>
<polygon fill="white" stroke="transparent" points="-4,4 -4,-760 520.15,-760 520.15,4 -4,4"/>
<!-- 82 -->
<g id="node1" class="node">
<title>82</title>
<ellipse fill="none" stroke="black" cx="335.15" cy="-738" rx="27" ry="18"/>
<text text-anchor="middle" x="335.15" y="-734.3" font-family="Times,serif" font-size="14.00">82</text>
</g>
<!-- &#45;94 -->
<g id="node2" class="node">
<title>&#45;94</title>
<ellipse fill="none" stroke="black" cx="297.15" cy="-666" rx="27" ry="18"/>
<text text-anchor="middle" x="297.15" y="-662.3" font-family="Times,serif" font-size="14.00">&#45;94</text>
</g>
<!-- 82&#45;&gt;&#45;94 -->
<g id="edge1" class="edge">
<title>82&#45;&gt;&#45;94</title>
<path fill="none" stroke="black" d="M326.33,-720.76C321.73,-712.28 315.99,-701.71 310.83,-692.2"/>
<polygon fill="black" stroke="black" points="313.76,-690.27 305.91,-683.15 307.61,-693.61 313.76,-690.27"/>
</g>
<!-- 91 -->
<g id="node3" class="node">
<title>91</title>
<ellipse fill="none" stroke="black" cx="373.15" cy="-666" rx="27" ry="18"/>
<text text-anchor="middle" x="373.15" y="-662.3" font-family="Times,serif" font-size="14.00">91</text>
</g>
<!-- 82&#45;&gt;91 -->
<g id="edge2" class="edge">
<title>82&#45;&gt;91</title>
<path fill="none" stroke="black" d="M343.96,-720.76C348.56,-712.28 354.3,-701.71 359.47,-692.2"/>
<polygon fill="black" stroke="black" points="362.69,-693.61 364.38,-683.15 356.53,-690.27 362.69,-693.61"/>
</g>
<!-- N&#45;94 -->
<!-- &#45;94&#45;&gt;N&#45;94 -->
<!-- 59 -->
<g id="node5" class="node">
<title>59</title>
<ellipse fill="none" stroke="black" cx="297.15" cy="-594" rx="27" ry="18"/>
<text text-anchor="middle" x="297.15" y="-590.3" font-family="Times,serif" font-size="14.00">59</text>
</g>
<!-- &#45;94&#45;&gt;59 -->
<g id="edge4" class="edge">
<title>&#45;94&#45;&gt;59</title>
<path fill="none" stroke="black" d="M297.15,-647.7C297.15,-639.98 297.15,-630.71 297.15,-622.11"/>
<polygon fill="black" stroke="black" points="300.65,-622.1 297.15,-612.1 293.65,-622.1 300.65,-622.1"/>
</g>
<!-- N91 -->
<!-- 91&#45;&gt;N91 -->
<!-- 100 -->
<g id="node29" class="node">
<title>100</title>
<ellipse fill="none" stroke="black" cx="450.15" cy="-594" rx="28.7" ry="18"/>
<text text-anchor="middle" x="450.15" y="-590.3" font-family="Times,serif" font-size="14.00">100</text>
</g>
<!-- 91&#45;&gt;100 -->
<g id="edge28" class="edge">
<title>91&#45;&gt;100</title>
<path fill="none" stroke="black" d="M388.73,-650.83C399.69,-640.87 414.54,-627.37 426.9,-616.14"/>
<polygon fill="black" stroke="black" points="429.54,-618.46 434.59,-609.14 424.83,-613.28 429.54,-618.46"/>
</g>
<!-- &#45;17 -->
<g id="node6" class="node">
<title>&#45;17</title>
<ellipse fill="none" stroke="black" cx="259.15" cy="-522" rx="27" ry="18"/>
<text text-anchor="middle" x="259.15" y="-518.3" font-family="Times,serif" font-size="14.00">&#45;17</text>
</g>
<!-- 59&#45;&gt;&#45;17 -->
<g id="edge5" class="edge">
<title>59&#45;&gt;&#45;17</title>
<path fill="none" stroke="black" d="M288.33,-576.76C283.73,-568.28 277.99,-557.71 272.83,-548.2"/>
<polygon fill="black" stroke="black" points="275.76,-546.27 267.91,-539.15 269.61,-549.61 275.76,-546.27"/>
</g>
<!-- 69 -->
<g id="node7" class="node">
<title>69</title>
<ellipse fill="none" stroke="black" cx="336.15" cy="-522" rx="27" ry="18"/>
<text text-anchor="middle" x="336.15" y="-518.3" font-family="Times,serif" font-size="14.00">69</text>
</g>
<!-- 59&#45;&gt;69 -->
<g id="edge6" class="edge">
<title>59&#45;&gt;69</title>
<path fill="none" stroke="black" d="M306.19,-576.76C310.97,-568.19 316.93,-557.49 322.27,-547.9"/>
<polygon fill="black" stroke="black" points="325.34,-549.59 327.15,-539.15 319.23,-546.18 325.34,-549.59"/>
</g>
<!-- &#45;84 -->
<g id="node8" class="node">
<title>&#45;84</title>
<ellipse fill="none" stroke="black" cx="186.15" cy="-450" rx="27" ry="18"/>
<text text-anchor="middle" x="186.15" y="-446.3" font-family="Times,serif" font-size="14.00">&#45;84</text>
</g>
<!-- &#45;17&#45;&gt;&#45;84 -->
<g id="edge7" class="edge">
<title>&#45;17&#45;&gt;&#45;84</title>
<path fill="none" stroke="black" d="M244.37,-506.83C233.99,-496.87 219.9,-483.37 208.19,-472.14"/>
<polygon fill="black" stroke="black" points="210.54,-469.54 200.9,-465.14 205.69,-474.59 210.54,-469.54"/>
</g>
<!-- 28 -->
<g id="node9" class="node">
<title>28</title>
<ellipse fill="none" stroke="black" cx="259.15" cy="-450" rx="27" ry="18"/>
<text text-anchor="middle" x="259.15" y="-446.3" font-family="Times,serif" font-size="14.00">28</text>
</g>
<!-- &#45;17&#45;&gt;28 -->
<g id="edge8" class="edge">
<title>&#45;17&#45;&gt;28</title>
<path fill="none" stroke="black" d="M259.15,-503.7C259.15,-495.98 259.15,-486.71 259.15,-478.11"/>
<polygon fill="black" stroke="black" points="262.65,-478.1 259.15,-468.1 255.65,-478.1 262.65,-478.1"/>
</g>
<!-- N69 -->
<!-- 69&#45;&gt;N69 -->
<!-- 74 -->
<g id="node25" class="node">
<title>74</title>
<ellipse fill="none" stroke="black" cx="413.15" cy="-450" rx="27" ry="18"/>
<text text-anchor="middle" x="413.15" y="-446.3" font-family="Times,serif" font-size="14.00">74</text>
</g>
<!-- 69&#45;&gt;74 -->
<g id="edge24" class="edge">
<title>69&#45;&gt;74</title>
<path fill="none" stroke="black" d="M351.73,-506.83C362.76,-496.81 377.74,-483.19 390.14,-471.92"/>
<polygon fill="black" stroke="black" points="392.81,-474.22 397.85,-464.91 388.1,-469.04 392.81,-474.22"/>
</g>
<!-- N&#45;84 -->
<!-- &#45;84&#45;&gt;N&#45;84 -->
<!-- &#45;26 -->
<g id="node11" class="node">
<title>&#45;26</title>
<ellipse fill="none" stroke="black" cx="186.15" cy="-378" rx="27" ry="18"/>
<text text-anchor="middle" x="186.15" y="-374.3" font-family="Times,serif" font-size="14.00">&#45;26</text>
</g>
<!-- &#45;84&#45;&gt;&#45;26 -->
<g id="edge10" class="edge">
<title>&#45;84&#45;&gt;&#45;26</title>
<path fill="none" stroke="black" d="M186.15,-431.7C186.15,-423.98 186.15,-414.71 186.15,-406.11"/>
<polygon fill="black" stroke="black" points="189.65,-406.1 186.15,-396.1 182.65,-406.1 189.65,-406.1"/>
</g>
<!-- 16 -->
<g id="node22" class="node">
<title>16</title>
<ellipse fill="none" stroke="black" cx="258.15" cy="-378" rx="27" ry="18"/>
<text text-anchor="middle" x="258.15" y="-374.3" font-family="Times,serif" font-size="14.00">16</text>
</g>
<!-- 28&#45;&gt;16 -->
<g id="edge21" class="edge">
<title>28&#45;&gt;16</title>
<path fill="none" stroke="black" d="M258.9,-431.7C258.79,-423.98 258.66,-414.71 258.53,-406.11"/>
<polygon fill="black" stroke="black" points="262.03,-406.05 258.39,-396.1 255.03,-406.15 262.03,-406.05"/>
</g>
<!-- N28 -->
<!-- 28&#45;&gt;N28 -->
<!-- &#45;31 -->
<g id="node12" class="node">
<title>&#45;31</title>
<ellipse fill="none" stroke="black" cx="147.15" cy="-306" rx="27" ry="18"/>
<text text-anchor="middle" x="147.15" y="-302.3" font-family="Times,serif" font-size="14.00">&#45;31</text>
</g>
<!-- &#45;26&#45;&gt;&#45;31 -->
<g id="edge11" class="edge">
<title>&#45;26&#45;&gt;&#45;31</title>
<path fill="none" stroke="black" d="M177.1,-360.76C172.33,-352.19 166.37,-341.49 161.02,-331.9"/>
<polygon fill="black" stroke="black" points="164.07,-330.18 156.14,-323.15 157.95,-333.59 164.07,-330.18"/>
</g>
<!-- N&#45;26 -->
<!-- &#45;26&#45;&gt;N&#45;26 -->
<!-- &#45;48 -->
<g id="node14" class="node">
<title>&#45;48</title>
<ellipse fill="none" stroke="black" cx="108.15" cy="-234" rx="27" ry="18"/>
<text text-anchor="middle" x="108.15" y="-230.3" font-family="Times,serif" font-size="14.00">&#45;48</text>
</g>
<!-- &#45;31&#45;&gt;&#45;48 -->
<g id="edge13" class="edge">
<title>&#45;31&#45;&gt;&#45;48</title>
<path fill="none" stroke="black" d="M138.1,-288.76C133.33,-280.19 127.37,-269.49 122.02,-259.9"/>
<polygon fill="black" stroke="black" points="125.07,-258.18 117.14,-251.15 118.95,-261.59 125.07,-258.18"/>
</g>
<!-- N&#45;31 -->
<!-- &#45;31&#45;&gt;N&#45;31 -->
<!-- &#45;83 -->
<g id="node16" class="node">
<title>&#45;83</title>
<ellipse fill="none" stroke="black" cx="72.15" cy="-162" rx="27" ry="18"/>
<text text-anchor="middle" x="72.15" y="-158.3" font-family="Times,serif" font-size="14.00">&#45;83</text>
</g>
<!-- &#45;48&#45;&gt;&#45;83 -->
<g id="edge15" class="edge">
<title>&#45;48&#45;&gt;&#45;83</title>
<path fill="none" stroke="black" d="M99.8,-216.76C95.44,-208.28 90,-197.71 85.11,-188.2"/>
<polygon fill="black" stroke="black" points="88.14,-186.44 80.45,-179.15 81.91,-189.64 88.14,-186.44"/>
</g>
<!-- &#45;38 -->
<g id="node17" class="node">
<title>&#45;38</title>
<ellipse fill="none" stroke="black" cx="144.15" cy="-162" rx="27" ry="18"/>
<text text-anchor="middle" x="144.15" y="-158.3" font-family="Times,serif" font-size="14.00">&#45;38</text>
</g>
<!-- &#45;48&#45;&gt;&#45;38 -->
<g id="edge16" class="edge">
<title>&#45;48&#45;&gt;&#45;38</title>
<path fill="none" stroke="black" d="M116.5,-216.76C120.86,-208.28 126.29,-197.71 131.19,-188.2"/>
<polygon fill="black" stroke="black" points="134.38,-189.64 135.84,-179.15 128.16,-186.44 134.38,-189.64"/>
</g>
<!-- N&#45;83 -->
<!-- &#45;83&#45;&gt;N&#45;83 -->
<!-- &#45;52 -->
<g id="node19" class="node">
<title>&#45;52</title>
<ellipse fill="none" stroke="black" cx="111.15" cy="-90" rx="27" ry="18"/>
<text text-anchor="middle" x="111.15" y="-86.3" font-family="Times,serif" font-size="14.00">&#45;52</text>
</g>
<!-- &#45;83&#45;&gt;&#45;52 -->
<g id="edge18" class="edge">
<title>&#45;83&#45;&gt;&#45;52</title>
<path fill="none" stroke="black" d="M81.19,-144.76C85.97,-136.19 91.93,-125.49 97.27,-115.9"/>
<polygon fill="black" stroke="black" points="100.34,-117.59 102.15,-107.15 94.23,-114.18 100.34,-117.59"/>
</g>
<!-- &#45;77 -->
<g id="node20" class="node">
<title>&#45;77</title>
<ellipse fill="none" stroke="black" cx="72.15" cy="-18" rx="27" ry="18"/>
<text text-anchor="middle" x="72.15" y="-14.3" font-family="Times,serif" font-size="14.00">&#45;77</text>
</g>
<!-- &#45;52&#45;&gt;&#45;77 -->
<g id="edge19" class="edge">
<title>&#45;52&#45;&gt;&#45;77</title>
<path fill="none" stroke="black" d="M102.1,-72.76C97.33,-64.19 91.37,-53.49 86.02,-43.9"/>
<polygon fill="black" stroke="black" points="89.07,-42.18 81.14,-35.15 82.95,-45.59 89.07,-42.18"/>
</g>
<!-- N&#45;52 -->
<!-- &#45;52&#45;&gt;N&#45;52 -->
<!-- N74 -->
<!-- 74&#45;&gt;N74 -->
<!-- 80 -->
<g id="node27" class="node">
<title>80</title>
<ellipse fill="none" stroke="black" cx="489.15" cy="-378" rx="27" ry="18"/>
<text text-anchor="middle" x="489.15" y="-374.3" font-family="Times,serif" font-size="14.00">80</text>
</g>
<!-- 74&#45;&gt;80 -->
<g id="edge26" class="edge">
<title>74&#45;&gt;80</title>
<path fill="none" stroke="black" d="M428.53,-434.83C439.34,-424.87 454,-411.37 466.2,-400.14"/>
<polygon fill="black" stroke="black" points="468.81,-402.49 473.79,-393.14 464.06,-397.34 468.81,-402.49"/>
</g>
</g>
</svg>
