<?xml version="1.0" encoding="UTF-8" standalone="no"?>
<!DOCTYPE svg PUBLIC "-//W3C//DTD SVG 1.1//EN"
 "http://www.w3.org/Graphics/SVG/1.1/DTD/svg11.dtd">
<!-- Generated by graphviz version 2.43.0 (0)
 -->
<!-- Title: Tree Pages: 1 -->
<svg width="153pt" height="1136pt"
 viewBox="0.00 0.00 153.00 1136.00" xmlns="http://www.w3.org/2000/svg" xmlns:xlink="http://www.w3.org/1999/xlink">
<g id="graph0" class="graph" transform="scale(1 1) rotate(0) translate(4 1132)">
<title>Tree</title>
<polygon fill="white" stroke="transparent" points="-4,4 -4,-1132 149,-1132 149,4 -4,4"/>
<g id="clust1" class="cluster">
<title>cluster_record_1</title>
<polygon fill="none" stroke="black" points="83.5,-1068 83.5,-1120 135.5,-1120 135.5,-1068 83.5,-1068"/>
</g>
<g id="clust2" class="cluster">
<title>cluster_record_3</title>
<polygon fill="none" stroke="black" points="82,-1004 82,-1060 137,-1060 137,-1004 82,-1004"/>
</g>
<g id="clust3" class="cluster">
<title>cluster_record_4</title>
<polygon fill="none" stroke="black" points="83.5,-944 83.5,-996 135.5,-996 135.5,-944 83.5,-944"/>
</g>
<g id="clust4" class="cluster">
<title>cluster_record_5</title>
<polygon fill="none" stroke="black" points="82,-880 82,-936 137,-936 137,-880 82,-880"/>
</g>
<g id="clust5" class="cluster">
<title>cluster_record_6</title>
<polygon fill="none" stroke="black" points="82,-816 82,-872 137,-872 137,-816 82,-816"/>
</g>
<g id="clust6" class="cluster">
<title>cluster_record_7</title>
<polygon fill="none" stroke="black" points="82,-752 82,-808 137,-808 137,-752 82,-752"/>
</g>
<g id="clust7" class="cluster">
<title>cluster_record_10</title>
<polygon fill="none" stroke="black" points="82,-688 82,-744 137,-744 137,-688 82,-688"/>
</g>
<g id="clust8" class="cluster">
<title>cluster_record_11</title>
<polygon fill="none" stroke="black" points="83.5,-628 83.5,-680 135.5,-680 135.5,-628 83.5,-628"/>
</g>
<g id="clust9" class="cluster">
<title>cluster_record_12</title>
<polygon fill="none" stroke="black" points="82,-564 82,-620 137,-620 137,-564 82,-564"/>
</g>
<g id="clust10" class="cluster">
<title>cluster_record_13</title>
<polygon fill="none" stroke="black" points="82,-500 82,-556 137,-556 137,-500 82,-500"/>
</g>
<g id="clust11" class="cluster">
<title>cluster_record_16</title>
<polygon fill="none" stroke="black" points="83.5,-440 83.5,-492 135.5,-492 135.5,-440 83.5,-440"/>
</g>
<g id="clust12" class="cluster">
<title>cluster_record_17</title>
<polygon fill="none" stroke="black" points="83.5,-380 83.5,-432 135.5,-432 135.5,-380 83.5,-380"/>
</g>
<g id="clust13" class="cluster">
<title>cluster_record_20</title>
<polygon fill="none" stroke="black" points="82,-316 82,-372 137,-372 137,-316 82,-316"/>
</g>
<g id="clust14" class="cluster">
<title>cluster_record_22</title>
<polygon fill="none" stroke="black" points="82,-252 82,-308 137,-308 137,-252 82,-252"/>
</g>
<g id="clust15" class="cluster">
<title>cluster_record_23</title>
<polygon fill="none" stroke="black" points="83.5,-192 83.5,-244 135.5,-244 135.5,-192 83.5,-192"/>
</g>
<g id="clust16" class="cluster">
<title>cluster_record_24</title>
<polygon fill="none" stroke="black" points="83.5,-132 83.5,-184 135.5,-184 135.5,-132 83.5,-132"/>
</g>
<g id="clust17" class="cluster">
<title>cluster_record_27</title>
<polygon fill="none" stroke="black" points="82,-68 82,-124 137,-124 137,-68 82,-68"/>
</g>
<g id="clust18" class="cluster">
<title>cluster_record_28</title>
<polygon fill="none" stroke="black" points="83.5,-8 83.5,-60 135.5,-60 135.5,-8 83.5,-8"/>
</g>
<!-- struct1 -->
<g id="node1" class="node">
<title>struct1</title>
<polygon fill="none" stroke="black" points="0,-353 0,-767 54,-767 54,-353 0,-353"/>
<text text-anchor="middle" x="27" y="-751.8" font-family="Times,serif" font-size="14.00">1</text>
<polyline fill="none" stroke="black" points="0,-744 54,-744 "/>
<text text-anchor="middle" x="27" y="-728.8" font-family="Times,serif" font-size="14.00">3</text>
<polyline fill="none" stroke="black" points="0,-721 54,-721 "/>
<text text-anchor="middle" x="27" y="-705.8" font-family="Times,serif" font-size="14.00">4</text>
<polyline fill="none" stroke="black" points="0,-698 54,-698 "/>
<text text-anchor="middle" x="27" y="-682.8" font-family="Times,serif" font-size="14.00">5</text>
<polyline fill="none" stroke="black" points="0,-675 54,-675 "/>
<text text-anchor="middle" x="27" y="-659.8" font-family="Times,serif" font-size="14.00">6</text>
<polyline fill="none" stroke="black" points="0,-652 54,-652 "/>
<text text-anchor="middle" x="27" y="-636.8" font-family="Times,serif" font-size="14.00">7</text>
<polyline fill="none" stroke="black" points="0,-629 54,-629 "/>
<text text-anchor="middle" x="27" y="-613.8" font-family="Times,serif" font-size="14.00">10</text>
<polyline fill="none" stroke="black" points="0,-606 54,-606 "/>
<text text-anchor="middle" x="27" y="-590.8" font-family="Times,serif" font-size="14.00">11</text>
<polyline fill="none" stroke="black" points="0,-583 54,-583 "/>
<text text-anchor="middle" x="27" y="-567.8" font-family="Times,serif" font-size="14.00">12</text>
<polyline fill="none" stroke="black" points="0,-560 54,-560 "/>
<text text-anchor="middle" x="27" y="-544.8" font-family="Times,serif" font-size="14.00">13</text>
<polyline fill="none" stroke="black" points="0,-537 54,-537 "/>
<text text-anchor="middle" x="27" y="-521.8" font-family="Times,serif" font-size="14.00">16</text>
<polyline fill="none" stroke="black" points="0,-514 54,-514 "/>
<text text-anchor="middle" x="27" y="-498.8" font-family="Times,serif" font-size="14.00">17</text>
<polyline fill="none" stroke="black" points="0,-491 54,-491 "/>
<text text-anchor="middle" x="27" y="-475.8" font-family="Times,serif" font-size="14.00">20</text>
<polyline fill="none" stroke="black" points="0,-468 54,-468 "/>
<text text-anchor="middle" x="27" y="-452.8" font-family="Times,serif" font-size="14.00">22</text>
<polyline fill="none" stroke="black" points="0,-445 54,-445 "/>
<text text-anchor="middle" x="27" y="-429.8" font-family="Times,serif" font-size="14.00">23</text>
<polyline fill="none" stroke="black" points="0,-422 54,-422 "/>
<text text-anchor="middle" x="27" y="-406.8" font-family="Times,serif" font-size="14.00">24</text>
<polyline fill="none" stroke="black" points="0,-399 54,-399 "/>
<text text-anchor="middle" x="27" y="-383.8" font-family="Times,serif" font-size="14.00">27</text>
<polyline fill="none" stroke="black" points="0,-376 54,-376 "/>
<text text-anchor="middle" x="27" y="-360.8" font-family="Times,serif" font-size="14.00">28</text>
</g>
<!-- 59 -->
<g id="node2" class="node">
<title>59</title>
<polygon fill="none" stroke="black" points="127.5,-1112 91.5,-1112 91.5,-1076 127.5,-1076 127.5,-1112"/>
<text text-anchor="middle" x="109.5" y="-1090.3" font-family="Times,serif" font-size="14.00">59</text>
</g>
<!-- struct1&#45;&gt;59 -->
<g id="edge1" class="edge">
<title>struct1:port1&#45;&gt;59</title>
<path fill="none" stroke="black" stroke-dasharray="5,2" d="M27,-768C27,-834.9 52.68,-1003.86 82,-1064 82.89,-1065.83 83.92,-1067.63 85.06,-1069.39"/>
<polygon fill="black" stroke="black" points="82.52,-1071.84 91.33,-1077.72 88.11,-1067.63 82.52,-1071.84"/>
</g>
<!-- &#45;26 -->
<g id="node3" class="node">
<title>&#45;26</title>
<polygon fill="none" stroke="black" points="129,-1051.5 90,-1051.5 90,-1012.5 129,-1012.5 129,-1051.5"/>
<text text-anchor="middle" x="109.5" y="-1028.3" font-family="Times,serif" font-size="14.00">&#45;26</text>
</g>
<!-- struct1&#45;&gt;&#45;26 -->
<g id="edge2" class="edge">
<title>struct1:port3&#45;&gt;&#45;26</title>
<path fill="none" stroke="black" stroke-dasharray="5,2" d="M54,-733C83.83,-733 70.44,-972.5 82,-1000 82.67,-1001.6 83.45,-1003.18 84.32,-1004.73"/>
<polygon fill="black" stroke="black" points="81.51,-1006.84 89.96,-1013.24 87.35,-1002.97 81.51,-1006.84"/>
</g>
<!-- 91 -->
<g id="node4" class="node">
<title>91</title>
<polygon fill="none" stroke="black" points="127.5,-988 91.5,-988 91.5,-952 127.5,-952 127.5,-988"/>
<text text-anchor="middle" x="109.5" y="-966.3" font-family="Times,serif" font-size="14.00">91</text>
</g>
<!-- struct1&#45;&gt;91 -->
<g id="edge3" class="edge">
<title>struct1:port4&#45;&gt;91</title>
<path fill="none" stroke="black" stroke-dasharray="5,2" d="M54,-710C105.49,-710 60.9,-893.04 82,-940 82.93,-942.06 84.04,-944.08 85.29,-946.04"/>
<polygon fill="black" stroke="black" points="82.58,-948.25 91.38,-954.15 88.17,-944.05 82.58,-948.25"/>
</g>
<!-- &#45;84 -->
<g id="node5" class="node">
<title>&#45;84</title>
<polygon fill="none" stroke="black" points="129,-927.5 90,-927.5 90,-888.5 129,-888.5 129,-927.5"/>
<text text-anchor="middle" x="109.5" y="-904.3" font-family="Times,serif" font-size="14.00">&#45;84</text>
</g>
<!-- struct1&#45;&gt;&#45;84 -->
<g id="edge4" class="edge">
<title>struct1:port5&#45;&gt;&#45;84</title>
<path fill="none" stroke="black" stroke-dasharray="5,2" d="M54,-687C96.46,-687 64.71,-837.22 82,-876 82.62,-877.4 83.33,-878.79 84.09,-880.16"/>
<polygon fill="black" stroke="black" points="81.4,-882.43 89.85,-888.82 87.23,-878.56 81.4,-882.43"/>
</g>
<!-- &#45;83 -->
<g id="node6" class="node">
<title>&#45;83</title>
<polygon fill="none" stroke="black" points="129,-863.5 90,-863.5 90,-824.5 129,-824.5 129,-863.5"/>
<text text-anchor="middle" x="109.5" y="-840.3" font-family="Times,serif" font-size="14.00">&#45;83</text>
</g>
<!-- struct1&#45;&gt;&#45;83 -->
<g id="edge5" class="edge">
<title>struct1:port6&#45;&gt;&#45;83</title>
<path fill="none" stroke="black" stroke-dasharray="5,2" d="M54,-664C87.47,-664 67.76,-781.71 82,-812 82.65,-813.39 83.38,-814.76 84.16,-816.12"/>
<polygon fill="black" stroke="black" points="81.49,-818.43 89.99,-824.76 87.3,-814.51 81.49,-818.43"/>
</g>
<!-- &#45;52 -->
<g id="node7" class="node">
<title>&#45;52</title>
<polygon fill="none" stroke="black" points="129,-799.5 90,-799.5 90,-760.5 129,-760.5 129,-799.5"/>
<text text-anchor="middle" x="109.5" y="-776.3" font-family="Times,serif" font-size="14.00">&#45;52</text>
</g>
<!-- struct1&#45;&gt;&#45;52 -->
<g id="edge6" class="edge">
<title>struct1:port7&#45;&gt;&#45;52</title>
<path fill="none" stroke="black" stroke-dasharray="5,2" d="M54,-641C103.16,-641 59.57,-704.26 82,-748 82.68,-749.32 83.42,-750.64 84.21,-751.95"/>
<polygon fill="black" stroke="black" points="81.4,-754.04 89.97,-760.28 87.16,-750.07 81.4,-754.04"/>
</g>
<!-- &#45;48 -->
<g id="node8" class="node">
<title>&#45;48</title>
<polygon fill="none" stroke="black" points="129,-735.5 90,-735.5 90,-696.5 129,-696.5 129,-735.5"/>
<text text-anchor="middle" x="109.5" y="-712.3" font-family="Times,serif" font-size="14.00">&#45;48</text>
</g>
<!-- struct1&#45;&gt;&#45;48 -->
<g id="edge7" class="edge">
<title>struct1:port10&#45;&gt;&#45;48</title>
<path fill="none" stroke="black" stroke-dasharray="5,2" d="M54,-618C85.86,-618 65.44,-656.78 82,-684 82.8,-685.31 83.64,-686.62 84.53,-687.93"/>
<polygon fill="black" stroke="black" points="81.99,-690.38 90.74,-696.35 87.62,-686.23 81.99,-690.38"/>
</g>
<!-- 69 -->
<g id="node9" class="node">
<title>69</title>
<polygon fill="none" stroke="black" points="127.5,-672 91.5,-672 91.5,-636 127.5,-636 127.5,-672"/>
<text text-anchor="middle" x="109.5" y="-650.3" font-family="Times,serif" font-size="14.00">69</text>
</g>
<!-- struct1&#45;&gt;69 -->
<g id="edge8" class="edge">
<title>struct1:port11&#45;&gt;69</title>
<path fill="none" stroke="black" stroke-dasharray="5,2" d="M54,-595C55.21,-595 71.23,-612.45 85.58,-628.37"/>
<polygon fill="black" stroke="black" points="83.13,-630.88 92.42,-635.98 88.34,-626.2 83.13,-630.88"/>
</g>
<!-- &#45;17 -->
<g id="node10" class="node">
<title>&#45;17</title>
<polygon fill="none" stroke="black" points="129,-611.5 90,-611.5 90,-572.5 129,-572.5 129,-611.5"/>
<text text-anchor="middle" x="109.5" y="-588.3" font-family="Times,serif" font-size="14.00">&#45;17</text>
</g>
<!-- struct1&#45;&gt;&#45;17 -->
<g id="edge9" class="edge">
<title>struct1:port12&#45;&gt;&#45;17</title>
<path fill="none" stroke="black" stroke-dasharray="5,2" d="M54,-572C62.98,-572 72.32,-574.42 80.67,-577.58"/>
<polygon fill="black" stroke="black" points="79.37,-580.84 89.94,-581.53 82.11,-574.39 79.37,-580.84"/>
</g>
<!-- &#45;77 -->
<g id="node11" class="node">
<title>&#45;77</title>
<polygon fill="none" stroke="black" points="129,-547.5 90,-547.5 90,-508.5 129,-508.5 129,-547.5"/>
<text text-anchor="middle" x="109.5" y="-524.3" font-family="Times,serif" font-size="14.00">&#45;77</text>
</g>
<!-- struct1&#45;&gt;&#45;77 -->
<g id="edge10" class="edge">
<title>struct1:port13&#45;&gt;&#45;77</title>
<path fill="none" stroke="black" stroke-dasharray="5,2" d="M54,-548C62.98,-548 72.32,-545.58 80.67,-542.42"/>
<polygon fill="black" stroke="black" points="82.11,-545.61 89.94,-538.47 79.37,-539.16 82.11,-545.61"/>
</g>
<!-- 16 -->
<g id="node12" class="node">
<title>16</title>
<polygon fill="none" stroke="black" points="127.5,-484 91.5,-484 91.5,-448 127.5,-448 127.5,-484"/>
<text text-anchor="middle" x="109.5" y="-462.3" font-family="Times,serif" font-size="14.00">16</text>
</g>
<!-- struct1&#45;&gt;16 -->
<g id="edge11" class="edge">
<title>struct1:port16&#45;&gt;16</title>
<path fill="none" stroke="black" stroke-dasharray="5,2" d="M54,-525C55.21,-525 71.23,-507.55 85.58,-491.63"/>
<polygon fill="black" stroke="black" points="88.34,-493.8 92.42,-484.02 83.13,-489.12 88.34,-493.8"/>
</g>
<!-- 74 -->
<g id="node13" class="node">
<title>74</title>
<polygon fill="none" stroke="black" points="127.5,-424 91.5,-424 91.5,-388 127.5,-388 127.5,-424"/>
<text text-anchor="middle" x="109.5" y="-402.3" font-family="Times,serif" font-size="14.00">74</text>
</g>
<!-- struct1&#45;&gt;74 -->
<g id="edge12" class="edge">
<title>struct1:port17&#45;&gt;74</title>
<path fill="none" stroke="black" stroke-dasharray="5,2" d="M54,-502C85.86,-502 65.01,-462.96 82,-436 82.92,-434.54 83.9,-433.09 84.94,-431.65"/>
<polygon fill="black" stroke="black" points="87.8,-433.68 91.24,-423.66 82.3,-429.34 87.8,-433.68"/>
</g>
<!-- &#45;38 -->
<g id="node14" class="node">
<title>&#45;38</title>
<polygon fill="none" stroke="black" points="129,-363.5 90,-363.5 90,-324.5 129,-324.5 129,-363.5"/>
<text text-anchor="middle" x="109.5" y="-340.3" font-family="Times,serif" font-size="14.00">&#45;38</text>
</g>
<!-- struct1&#45;&gt;&#45;38 -->
<g id="edge13" class="edge">
<title>struct1:port20&#45;&gt;&#45;38</title>
<path fill="none" stroke="black" stroke-dasharray="5,2" d="M54,-479C101.44,-479 60.15,-418.11 82,-376 82.69,-374.68 83.43,-373.36 84.23,-372.06"/>
<polygon fill="black" stroke="black" points="87.18,-373.94 90,-363.73 81.43,-369.96 87.18,-373.94"/>
</g>
<!-- &#45;94 -->
<g id="node15" class="node">
<title>&#45;94</title>
<polygon fill="none" stroke="black" points="129,-299.5 90,-299.5 90,-260.5 129,-260.5 129,-299.5"/>
<text text-anchor="middle" x="109.5" y="-276.3" font-family="Times,serif" font-size="14.00">&#45;94</text>
</g>
<!-- struct1&#45;&gt;&#45;94 -->
<g id="edge14" class="edge">
<title>struct1:port22&#45;&gt;&#45;94</title>
<path fill="none" stroke="black" stroke-dasharray="5,2" d="M54,-456C86.6,-456 68.06,-341.47 82,-312 82.64,-310.66 83.34,-309.32 84.1,-308"/>
<polygon fill="black" stroke="black" points="87.07,-309.86 89.74,-299.6 81.26,-305.95 87.07,-309.86"/>
</g>
<!-- 80 -->
<g id="node16" class="node">
<title>80</title>
<polygon fill="none" stroke="black" points="127.5,-236 91.5,-236 91.5,-200 127.5,-200 127.5,-236"/>
<text text-anchor="middle" x="109.5" y="-214.3" font-family="Times,serif" font-size="14.00">80</text>
</g>
<!-- struct1&#45;&gt;80 -->
<g id="edge15" class="edge">
<title>struct1:port23&#45;&gt;80</title>
<path fill="none" stroke="black" stroke-dasharray="5,2" d="M54,-433C95.58,-433 64.41,-285.67 82,-248 82.96,-245.95 84.1,-243.94 85.36,-241.99"/>
<polygon fill="black" stroke="black" points="88.24,-243.99 91.48,-233.9 82.66,-239.76 88.24,-243.99"/>
</g>
<!-- 82 -->
<g id="node17" class="node">
<title>82</title>
<polygon fill="none" stroke="black" points="127.5,-176 91.5,-176 91.5,-140 127.5,-140 127.5,-176"/>
<text text-anchor="middle" x="109.5" y="-154.3" font-family="Times,serif" font-size="14.00">82</text>
</g>
<!-- struct1&#45;&gt;82 -->
<g id="edge16" class="edge">
<title>struct1:port24&#45;&gt;82</title>
<path fill="none" stroke="black" stroke-dasharray="5,2" d="M54,-410C103.72,-410 61.52,-233.31 82,-188 82.93,-185.94 84.05,-183.92 85.3,-181.97"/>
<polygon fill="black" stroke="black" points="88.18,-183.96 91.39,-173.86 82.59,-179.75 88.18,-183.96"/>
</g>
<!-- &#45;31 -->
<g id="node18" class="node">
<title>&#45;31</title>
<polygon fill="none" stroke="black" points="129,-115.5 90,-115.5 90,-76.5 129,-76.5 129,-115.5"/>
<text text-anchor="middle" x="109.5" y="-92.3" font-family="Times,serif" font-size="14.00">&#45;31</text>
</g>
<!-- struct1&#45;&gt;&#45;31 -->
<g id="edge17" class="edge">
<title>struct1:port27&#45;&gt;&#45;31</title>
<path fill="none" stroke="black" stroke-dasharray="5,2" d="M54,-387C82.95,-387 70.74,-154.66 82,-128 82.68,-126.4 83.46,-124.82 84.32,-123.27"/>
<polygon fill="black" stroke="black" points="87.35,-125.03 89.97,-114.76 81.52,-121.16 87.35,-125.03"/>
</g>
<!-- 28 -->
<g id="node19" class="node">
<title>28</title>
<polygon fill="none" stroke="black" points="127.5,-52 91.5,-52 91.5,-16 127.5,-16 127.5,-52"/>
<text text-anchor="middle" x="109.5" y="-30.3" font-family="Times,serif" font-size="14.00">28</text>
</g>
<!-- struct1&#45;&gt;28 -->
<g id="edge18" class="edge">
<title>struct1:port28&#45;&gt;28</title>
<path fill="none" stroke="black" stroke-dasharray="5,2" d="M27,-352C27,-286.84 53.3,-122.5 82,-64 82.9,-62.18 83.93,-60.38 85.07,-58.62"/>
<polygon fill="black" stroke="black" points="88.12,-60.38 91.34,-50.28 82.53,-56.17 88.12,-60.38"/>
</g>
</g>
</svg>
