<?xml version="1.0" encoding="UTF-8" standalone="no"?>
<!DOCTYPE svg PUBLIC "-//W3C//DTD SVG 1.1//EN"
 "http://www.w3.org/Graphics/SVG/1.1/DTD/svg11.dtd">
<!-- Generated by graphviz version 2.43.0 (0)
 -->
<!-- Title: Tree Pages: 1 -->
<svg width="228pt" height="712pt"
 viewBox="0.00 0.00 228.00 712.00" xmlns="http://www.w3.org/2000/svg" xmlns:xlink="http://www.w3.org/1999/xlink">
<g id="graph0" class="graph" transform="scale(1 1) rotate(0) translate(4 708)">
<title>Tree</title>
<polygon fill="white" stroke="transparent" points="-4,4 -4,-708 224,-708 224,4 -4,4"/>
<g id="clust1" class="cluster">
<title>cluster_record_2</title>
<polygon fill="none" stroke="black" points="82,-640 82,-696 210.5,-696 210.5,-640 82,-640"/>
</g>
<g id="clust2" class="cluster">
<title>cluster_record_3</title>
<polygon fill="none" stroke="black" points="82,-576 82,-632 212,-632 212,-576 82,-576"/>
</g>
<g id="clust3" class="cluster">
<title>cluster_record_6</title>
<polygon fill="none" stroke="black" points="82,-512 82,-568 137,-568 137,-512 82,-512"/>
</g>
<g id="clust4" class="cluster">
<title>cluster_record_8</title>
<polygon fill="none" stroke="black" points="82,-448 82,-504 210.5,-504 210.5,-448 82,-448"/>
</g>
<g id="clust5" class="cluster">
<title>cluster_record_9</title>
<polygon fill="none" stroke="black" points="83.5,-384 83.5,-440 212,-440 212,-384 83.5,-384"/>
</g>
<g id="clust6" class="cluster">
<title>cluster_record_11</title>
<polygon fill="none" stroke="black" points="83.5,-324 83.5,-376 135.5,-376 135.5,-324 83.5,-324"/>
</g>
<g id="clust7" class="cluster">
<title>cluster_record_12</title>
<polygon fill="none" stroke="black" points="82,-260 82,-316 137,-316 137,-260 82,-260"/>
</g>
<g id="clust8" class="cluster">
<title>cluster_record_14</title>
<polygon fill="none" stroke="black" points="83.5,-196 83.5,-252 212,-252 212,-196 83.5,-196"/>
</g>
<g id="clust9" class="cluster">
<title>cluster_record_16</title>
<polygon fill="none" stroke="black" points="83.5,-132 83.5,-188 212,-188 212,-132 83.5,-132"/>
</g>
<g id="clust10" class="cluster">
<title>cluster_record_17</title>
<polygon fill="none" stroke="black" points="82,-68 82,-124 137,-124 137,-68 82,-68"/>
</g>
<g id="clust11" class="cluster">
<title>cluster_record_19</title>
<polygon fill="none" stroke="black" points="83.5,-8 83.5,-60 135.5,-60 135.5,-8 83.5,-8"/>
</g>
<!-- struct1 -->
<g id="node1" class="node">
<title>struct1</title>
<polygon fill="none" stroke="black" points="0,-223.5 0,-476.5 54,-476.5 54,-223.5 0,-223.5"/>
<text text-anchor="middle" x="27" y="-461.3" font-family="Times,serif" font-size="14.00">2</text>
<polyline fill="none" stroke="black" points="0,-453.5 54,-453.5 "/>
<text text-anchor="middle" x="27" y="-438.3" font-family="Times,serif" font-size="14.00">3</text>
<polyline fill="none" stroke="black" points="0,-430.5 54,-430.5 "/>
<text text-anchor="middle" x="27" y="-415.3" font-family="Times,serif" font-size="14.00">6</text>
<polyline fill="none" stroke="black" points="0,-407.5 54,-407.5 "/>
<text text-anchor="middle" x="27" y="-392.3" font-family="Times,serif" font-size="14.00">8</text>
<polyline fill="none" stroke="black" points="0,-384.5 54,-384.5 "/>
<text text-anchor="middle" x="27" y="-369.3" font-family="Times,serif" font-size="14.00">9</text>
<polyline fill="none" stroke="black" points="0,-361.5 54,-361.5 "/>
<text text-anchor="middle" x="27" y="-346.3" font-family="Times,serif" font-size="14.00">11</text>
<polyline fill="none" stroke="black" points="0,-338.5 54,-338.5 "/>
<text text-anchor="middle" x="27" y="-323.3" font-family="Times,serif" font-size="14.00">12</text>
<polyline fill="none" stroke="black" points="0,-315.5 54,-315.5 "/>
<text text-anchor="middle" x="27" y="-300.3" font-family="Times,serif" font-size="14.00">14</text>
<polyline fill="none" stroke="black" points="0,-292.5 54,-292.5 "/>
<text text-anchor="middle" x="27" y="-277.3" font-family="Times,serif" font-size="14.00">16</text>
<polyline fill="none" stroke="black" points="0,-269.5 54,-269.5 "/>
<text text-anchor="middle" x="27" y="-254.3" font-family="Times,serif" font-size="14.00">17</text>
<polyline fill="none" stroke="black" points="0,-246.5 54,-246.5 "/>
<text text-anchor="middle" x="27" y="-231.3" font-family="Times,serif" font-size="14.00">19</text>
</g>
<!-- &#45;38 -->
<g id="node2" class="node">
<title>&#45;38</title>
<polygon fill="none" stroke="black" points="129,-687.5 90,-687.5 90,-648.5 129,-648.5 129,-687.5"/>
<text text-anchor="middle" x="109.5" y="-664.3" font-family="Times,serif" font-size="14.00">&#45;38</text>
</g>
<!-- struct1&#45;&gt;&#45;38 -->
<g id="edge2" class="edge">
<title>struct1:port2&#45;&gt;&#45;38</title>
<path fill="none" stroke="black" stroke-dasharray="5,2" d="M27,-478C27,-552.36 45.49,-571.23 82,-636 82.75,-637.34 83.56,-638.67 84.42,-639.99"/>
<polygon fill="black" stroke="black" points="81.84,-642.4 90.51,-648.49 87.53,-638.32 81.84,-642.4"/>
</g>
<!-- &#45;77 -->
<g id="node4" class="node">
<title>&#45;77</title>
<polygon fill="none" stroke="black" points="129,-623.5 90,-623.5 90,-584.5 129,-584.5 129,-623.5"/>
<text text-anchor="middle" x="109.5" y="-600.3" font-family="Times,serif" font-size="14.00">&#45;77</text>
</g>
<!-- struct1&#45;&gt;&#45;77 -->
<g id="edge4" class="edge">
<title>struct1:port3&#45;&gt;&#45;77</title>
<path fill="none" stroke="black" stroke-dasharray="5,2" d="M54,-442C83.55,-442 69.1,-545.42 82,-572 82.65,-573.34 83.37,-574.67 84.14,-575.98"/>
<polygon fill="black" stroke="black" points="81.3,-578.05 89.81,-584.36 87.1,-574.12 81.3,-578.05"/>
</g>
<!-- &#45;94 -->
<g id="node6" class="node">
<title>&#45;94</title>
<polygon fill="none" stroke="black" points="129,-559.5 90,-559.5 90,-520.5 129,-520.5 129,-559.5"/>
<text text-anchor="middle" x="109.5" y="-536.3" font-family="Times,serif" font-size="14.00">&#45;94</text>
</g>
<!-- struct1&#45;&gt;&#45;94 -->
<g id="edge5" class="edge">
<title>struct1:port6&#45;&gt;&#45;94</title>
<path fill="none" stroke="black" stroke-dasharray="5,2" d="M54,-419C95.47,-419 62.18,-471.57 82,-508 82.71,-509.31 83.48,-510.61 84.29,-511.9"/>
<polygon fill="black" stroke="black" points="81.51,-514.04 90.14,-520.19 87.23,-510 81.51,-514.04"/>
</g>
<!-- &#45;52 -->
<g id="node7" class="node">
<title>&#45;52</title>
<polygon fill="none" stroke="black" points="129,-495.5 90,-495.5 90,-456.5 129,-456.5 129,-495.5"/>
<text text-anchor="middle" x="109.5" y="-472.3" font-family="Times,serif" font-size="14.00">&#45;52</text>
</g>
<!-- struct1&#45;&gt;&#45;52 -->
<g id="edge7" class="edge">
<title>struct1:port8&#45;&gt;&#45;52</title>
<path fill="none" stroke="black" stroke-dasharray="5,2" d="M54,-396C78.7,-396 67.85,-423.75 82,-444 82.99,-445.42 84.04,-446.86 85.11,-448.3"/>
<polygon fill="black" stroke="black" points="82.53,-450.69 91.44,-456.42 88.05,-446.39 82.53,-450.69"/>
</g>
<!-- 69 -->
<g id="node9" class="node">
<title>69</title>
<polygon fill="none" stroke="black" points="127.5,-429 91.5,-429 91.5,-393 127.5,-393 127.5,-429"/>
<text text-anchor="middle" x="109.5" y="-407.3" font-family="Times,serif" font-size="14.00">69</text>
</g>
<!-- struct1&#45;&gt;69 -->
<g id="edge9" class="edge">
<title>struct1:port9&#45;&gt;69</title>
<path fill="none" stroke="black" stroke-dasharray="5,2" d="M54,-373C65.66,-373 76.6,-378.92 85.58,-386.09"/>
<polygon fill="black" stroke="black" points="83.44,-388.87 93.24,-392.89 88.09,-383.63 83.44,-388.87"/>
</g>
<!-- 91 -->
<g id="node11" class="node">
<title>91</title>
<polygon fill="none" stroke="black" points="127.5,-368 91.5,-368 91.5,-332 127.5,-332 127.5,-368"/>
<text text-anchor="middle" x="109.5" y="-346.3" font-family="Times,serif" font-size="14.00">91</text>
</g>
<!-- struct1&#45;&gt;91 -->
<g id="edge10" class="edge">
<title>struct1:port11&#45;&gt;91</title>
<path fill="none" stroke="black" stroke-dasharray="5,2" d="M54,-350C62.88,-350 72.57,-350 81.29,-350"/>
<polygon fill="black" stroke="black" points="81.32,-353.5 91.32,-350 81.32,-346.5 81.32,-353.5"/>
</g>
<!-- &#45;48 -->
<g id="node12" class="node">
<title>&#45;48</title>
<polygon fill="none" stroke="black" points="129,-307.5 90,-307.5 90,-268.5 129,-268.5 129,-307.5"/>
<text text-anchor="middle" x="109.5" y="-284.3" font-family="Times,serif" font-size="14.00">&#45;48</text>
</g>
<!-- struct1&#45;&gt;&#45;48 -->
<g id="edge11" class="edge">
<title>struct1:port12&#45;&gt;&#45;48</title>
<path fill="none" stroke="black" stroke-dasharray="5,2" d="M54,-327C65.11,-327 75.51,-321.57 84.19,-314.77"/>
<polygon fill="black" stroke="black" points="86.75,-317.19 91.95,-307.96 82.13,-311.93 86.75,-317.19"/>
</g>
<!-- 74 -->
<g id="node13" class="node">
<title>74</title>
<polygon fill="none" stroke="black" points="127.5,-243 91.5,-243 91.5,-207 127.5,-207 127.5,-243"/>
<text text-anchor="middle" x="109.5" y="-221.3" font-family="Times,serif" font-size="14.00">74</text>
</g>
<!-- struct1&#45;&gt;74 -->
<g id="edge13" class="edge">
<title>struct1:port14&#45;&gt;74</title>
<path fill="none" stroke="black" stroke-dasharray="5,2" d="M54,-304C78.7,-304 67.7,-276.13 82,-256 83.14,-254.4 84.34,-252.78 85.58,-251.17"/>
<polygon fill="black" stroke="black" points="88.41,-253.23 91.96,-243.25 82.96,-248.84 88.41,-253.23"/>
</g>
<!-- 16 -->
<g id="node15" class="node">
<title>16</title>
<polygon fill="none" stroke="black" points="127.5,-179 91.5,-179 91.5,-143 127.5,-143 127.5,-179"/>
<text text-anchor="middle" x="109.5" y="-157.3" font-family="Times,serif" font-size="14.00">16</text>
</g>
<!-- struct1&#45;&gt;16 -->
<g id="edge15" class="edge">
<title>struct1:port16&#45;&gt;16</title>
<path fill="none" stroke="black" stroke-dasharray="5,2" d="M54,-281C95.47,-281 61.9,-228.27 82,-192 82.98,-190.24 84.07,-188.48 85.23,-186.75"/>
<polygon fill="black" stroke="black" points="88.27,-188.54 91.49,-178.45 82.68,-184.33 88.27,-188.54"/>
</g>
<!-- &#45;83 -->
<g id="node17" class="node">
<title>&#45;83</title>
<polygon fill="none" stroke="black" points="129,-115.5 90,-115.5 90,-76.5 129,-76.5 129,-115.5"/>
<text text-anchor="middle" x="109.5" y="-92.3" font-family="Times,serif" font-size="14.00">&#45;83</text>
</g>
<!-- struct1&#45;&gt;&#45;83 -->
<g id="edge16" class="edge">
<title>struct1:port17&#45;&gt;&#45;83</title>
<path fill="none" stroke="black" stroke-dasharray="5,2" d="M54,-258C83.55,-258 69.1,-154.58 82,-128 82.65,-126.66 83.37,-125.33 84.14,-124.02"/>
<polygon fill="black" stroke="black" points="87.1,-125.88 89.81,-115.64 81.3,-121.95 87.1,-125.88"/>
</g>
<!-- 59 -->
<g id="node18" class="node">
<title>59</title>
<polygon fill="none" stroke="black" points="127.5,-52 91.5,-52 91.5,-16 127.5,-16 127.5,-52"/>
<text text-anchor="middle" x="109.5" y="-30.3" font-family="Times,serif" font-size="14.00">59</text>
</g>
<!-- struct1&#45;&gt;59 -->
<g id="edge17" class="edge">
<title>struct1:port19&#45;&gt;59</title>
<path fill="none" stroke="black" stroke-dasharray="5,2" d="M27,-222C27,-147.64 44.46,-128.18 82,-64 82.89,-62.47 83.87,-60.96 84.9,-59.46"/>
<polygon fill="black" stroke="black" points="87.94,-61.25 91.3,-51.2 82.41,-56.96 87.94,-61.25"/>
</g>
<!-- 82 -->
<g id="node3" class="node">
<title>82</title>
<polygon fill="none" stroke="black" points="202.5,-686 166.5,-686 166.5,-650 202.5,-650 202.5,-686"/>
<text text-anchor="middle" x="184.5" y="-664.3" font-family="Times,serif" font-size="14.00">82</text>
</g>
<!-- &#45;38&#45;&gt;82 -->
<g id="edge1" class="edge">
<title>&#45;38&#45;&gt;82</title>
<path fill="none" stroke="black" d="M129.3,-668C137.35,-668 146.91,-668 155.75,-668"/>
<polygon fill="black" stroke="black" points="156.02,-671.5 166.02,-668 156.02,-664.5 156.02,-671.5"/>
</g>
<!-- &#45;17 -->
<g id="node5" class="node">
<title>&#45;17</title>
<polygon fill="none" stroke="black" points="204,-623.5 165,-623.5 165,-584.5 204,-584.5 204,-623.5"/>
<text text-anchor="middle" x="184.5" y="-600.3" font-family="Times,serif" font-size="14.00">&#45;17</text>
</g>
<!-- &#45;77&#45;&gt;&#45;17 -->
<g id="edge3" class="edge">
<title>&#45;77&#45;&gt;&#45;17</title>
<path fill="none" stroke="black" stroke-dasharray="5,2" d="M129.3,-604C137.05,-604 146.2,-604 154.76,-604"/>
<polygon fill="black" stroke="black" points="154.76,-607.5 164.76,-604 154.76,-600.5 154.76,-607.5"/>
</g>
<!-- 28 -->
<g id="node8" class="node">
<title>28</title>
<polygon fill="none" stroke="black" points="202.5,-494 166.5,-494 166.5,-458 202.5,-458 202.5,-494"/>
<text text-anchor="middle" x="184.5" y="-472.3" font-family="Times,serif" font-size="14.00">28</text>
</g>
<!-- &#45;52&#45;&gt;28 -->
<g id="edge6" class="edge">
<title>&#45;52&#45;&gt;28</title>
<path fill="none" stroke="black" stroke-dasharray="5,2" d="M129.3,-476C137.35,-476 146.91,-476 155.75,-476"/>
<polygon fill="black" stroke="black" points="156.02,-479.5 166.02,-476 156.02,-472.5 156.02,-479.5"/>
</g>
<!-- &#45;31 -->
<g id="node10" class="node">
<title>&#45;31</title>
<polygon fill="none" stroke="black" points="204,-431.5 165,-431.5 165,-392.5 204,-392.5 204,-431.5"/>
<text text-anchor="middle" x="184.5" y="-408.3" font-family="Times,serif" font-size="14.00">&#45;31</text>
</g>
<!-- 69&#45;&gt;&#45;31 -->
<g id="edge8" class="edge">
<title>69&#45;&gt;&#45;31</title>
<path fill="none" stroke="black" stroke-dasharray="5,2" d="M127.8,-411.24C135.8,-411.35 145.52,-411.48 154.59,-411.6"/>
<polygon fill="black" stroke="black" points="154.74,-415.11 164.79,-411.74 154.84,-408.11 154.74,-415.11"/>
</g>
<!-- &#45;26 -->
<g id="node14" class="node">
<title>&#45;26</title>
<polygon fill="none" stroke="black" points="204,-243.5 165,-243.5 165,-204.5 204,-204.5 204,-243.5"/>
<text text-anchor="middle" x="184.5" y="-220.3" font-family="Times,serif" font-size="14.00">&#45;26</text>
</g>
<!-- 74&#45;&gt;&#45;26 -->
<g id="edge12" class="edge">
<title>74&#45;&gt;&#45;26</title>
<path fill="none" stroke="black" stroke-dasharray="5,2" d="M127.8,-224.76C135.8,-224.65 145.52,-224.52 154.59,-224.4"/>
<polygon fill="black" stroke="black" points="154.84,-227.89 164.79,-224.26 154.74,-220.89 154.84,-227.89"/>
</g>
<!-- &#45;84 -->
<g id="node16" class="node">
<title>&#45;84</title>
<polygon fill="none" stroke="black" points="204,-179.5 165,-179.5 165,-140.5 204,-140.5 204,-179.5"/>
<text text-anchor="middle" x="184.5" y="-156.3" font-family="Times,serif" font-size="14.00">&#45;84</text>
</g>
<!-- 16&#45;&gt;&#45;84 -->
<g id="edge14" class="edge">
<title>16&#45;&gt;&#45;84</title>
<path fill="none" stroke="black" stroke-dasharray="5,2" d="M127.8,-160.76C135.8,-160.65 145.52,-160.52 154.59,-160.4"/>
<polygon fill="black" stroke="black" points="154.84,-163.89 164.79,-160.26 154.74,-156.89 154.84,-163.89"/>
</g>
</g>
</svg>
